<?xml version="1.0" encoding="UTF-8" standalone="no"?>
<!-- Created with Inkscape (http://www.inkscape.org/) -->

<svg
   xmlns:dc="http://purl.org/dc/elements/1.1/"
   xmlns:cc="http://creativecommons.org/ns#"
   xmlns:rdf="http://www.w3.org/1999/02/22-rdf-syntax-ns#"
   xmlns:svg="http://www.w3.org/2000/svg"
   xmlns="http://www.w3.org/2000/svg"
   xmlns:sodipodi="http://sodipodi.sourceforge.net/DTD/sodipodi-0.dtd"
   xmlns:inkscape="http://www.inkscape.org/namespaces/inkscape"
   width="24.936428mm"
   height="7.9060941mm"
   viewBox="0 0 88.357422 28.013719"
   id="svg4223"
   version="1.1"
   inkscape:version="0.91pre4 r13712"
   sodipodi:docname="grind.svg">
  <defs
     id="defs4225" />
  <sodipodi:namedview
     id="base"
     pagecolor="#ffffff"
     bordercolor="#666666"
     borderopacity="1.0"
     inkscape:pageopacity="0.0"
     inkscape:pageshadow="2"
     inkscape:zoom="0.7"
     inkscape:cx="215.91335"
     inkscape:cy="-56.500763"
     inkscape:document-units="px"
     inkscape:current-layer="layer1"
     showgrid="false"
     fit-margin-top="0"
     fit-margin-left="0"
     fit-margin-right="0"
     fit-margin-bottom="0"
     inkscape:window-width="1364"
     inkscape:window-height="747"
     inkscape:window-x="0"
     inkscape:window-y="19"
     inkscape:window-maximized="1" />
  <metadata
     id="metadata4228">
    <rdf:RDF>
      <cc:Work
         rdf:about="">
        <dc:format>image/svg+xml</dc:format>
        <dc:type
           rdf:resource="http://purl.org/dc/dcmitype/StillImage" />
        <dc:title></dc:title>
      </cc:Work>
    </rdf:RDF>
  </metadata>
  <g
     inkscape:label="Layer 1"
     inkscape:groupmode="layer"
     id="layer1"
     transform="translate(-527.24986,-629.78392)">
    <path
       style="font-style:normal;font-variant:normal;font-weight:normal;font-stretch:normal;font-size:medium;line-height:125%;font-family:'Helvetica Neue';-inkscape-font-specification:'Helvetica Neue, Normal';text-align:start;letter-spacing:0px;word-spacing:0px;writing-mode:lr-tb;text-anchor:start;fill:#000000;fill-opacity:1;stroke:none;stroke-width:1px;stroke-linecap:butt;stroke-linejoin:miter;stroke-opacity:1"
       d="m 540.00181,629.78397 -2.99083,0.30059 -2.59706,0.90058 -2.1758,1.36895 -1.80076,1.78145 -1.38673,2.15644 -1.01171,2.49395 -0.59142,2.69938 -0.19764,2.84944 0.216,2.57813 0.64728,2.48437 1.05897,2.29785 1.45275,2.01661 1.8287,1.6875 2.18497,1.3125 2.52226,0.81484 2.84102,0.27109 2.35312,-0.22422 2.33438,-0.67421 2.1377,-1.22891 1.76269,-1.81016 0.46875,1.66895 0.46875,1.66895 1.125,0 1.125,0 0,-7.04981 0,-7.0498 -5.86914,0 -5.86914,0 0,1.5 0,1.5 4.27539,0 4.27539,0 -0.0848,1.78083 -0.40352,1.66838 -0.70311,1.48145 -0.98439,1.29395 -1.21835,1.04079 -1.48087,0.7971 -1.73456,0.50664 -1.97833,0.16914 -2.11954,-0.21599 -1.85702,-0.64729 -1.55606,-1.04099 -1.29355,-1.3223 -1.02149,-1.6029 -0.74023,-1.8092 -0.45079,-1.98789 -0.15077,-2.0629 0.13144,-2.10918 0.39395,-2.05293 0.66601,-1.94023 0.94727,-1.69648 1.27479,-1.45335 1.57482,-1.13454 1.93183,-0.73206 2.26934,-0.24451 1.45313,0.0937 1.35937,0.28125 1.2752,0.43162 1.12519,0.61916 0.96523,0.8158 0.79649,1.02209 0.59981,1.19998 0.3748,1.42502 1.78125,0 1.78125,0 -0.54316,-2.18496 -0.88067,-1.82871 -1.14413,-1.53674 -1.40665,-1.23669 -1.61211,-0.93812 -1.83711,-0.63806 -1.97832,-0.39395 -2.10957,-0.13144 z m 29.24219,0.63867 0,1.9502 0,1.9502 1.59375,0 1.59375,0 0,-1.9502 0,-1.9502 -1.59375,0 z m 43.17578,0 0,4.9873 0,4.98731 -0.0381,0 -0.0381,0 -0.59063,-0.78693 -0.72187,-0.63689 -0.77754,-0.53437 -0.83379,-0.40313 -0.86328,-0.31897 -0.86328,-0.20642 -0.8338,-0.1127 -0.77753,-0.0377 -2.08146,0.20584 -1.81893,0.61838 -1.51896,0.93787 -1.25643,1.23791 -0.95645,1.47185 -0.69394,1.71565 -0.39395,1.89395 -0.13144,2.00645 0.14062,2.00644 0.42188,1.89395 0.69394,1.7248 0.95645,1.49981 1.25644,1.24704 1.51895,0.96585 1.82811,0.61835 2.10939,0.20586 1.94082,-0.17734 1.77207,-0.53359 1.46232,-0.93806 1.01229,-1.38811 0.0381,0 0.0381,0 0,1.3125 0,1.3125 1.59375,0 1.59375,0 0,-13.3877 0,-13.3877 -1.59375,0 z m -45.80078,6.9375 -1.23759,0.0376 -1.12511,0.18775 -1.01261,0.33777 -0.90008,0.48765 -0.81089,0.63965 -0.74517,0.79409 -0.67954,0.94881 -0.61401,1.10377 -0.019,0 -0.019,0 -0.019,0 -0.019,0 0,-1.02198 0,-1.02197 0,-1.02197 0,-1.02197 -1.5,0 -1.5,0 0,9.69434 0,9.69434 1.59375,0 1.59375,0 0,-4.3125 0,-4.3125 0.0937,-1.76289 0.28126,-1.5379 0.48808,-1.34982 0.71309,-1.12479 0.44513,-0.47575 0.51053,-0.4147 0.57615,-0.35375 0.64202,-0.2929 0.71035,-0.22975 0.78085,-0.1642 0.85117,-0.0986 0.9213,-0.0329 0,-0.84375 0,-0.84375 3e-5,-0.84375 z m 20.16211,0 -2.01111,0.22035 -0.89661,0.27545 -0.82395,0.3856 -1.42992,1.10169 -1.13919,1.54231 -0.0186,0 -0.0186,0 -0.0186,0 -0.0186,0 0,-0.76904 0,-0.76905 0,-0.76904 0,-0.76905 -1.5,0 -1.5,0 0,9.69434 0,9.69434 1.59375,0 1.59375,0 0,-5.47461 0,-5.47461 0.0846,-1.25645 0.25333,-1.14394 0.45957,-1.05059 0.62832,-0.90059 0.79648,-0.73147 0.46144,-0.29543 0.5038,-0.24849 0.56659,-0.19846 0.61504,-0.13865 0.66119,-0.0841 0.70796,-0.028 1.64024,0.26289 1.24648,0.7879 0.7879,1.2373 0.26288,1.61231 0,6.5625 0,6.5625 1.59375,0 1.59375,0 0,-6.375 0,-6.375 -0.0846,-1.49981 -0.25332,-1.3498 -0.42207,-1.21873 -0.66582,-1.03127 -0.90937,-0.83457 -1.15313,-0.62832 -0.67735,-0.22978 -0.75702,-0.1642 -0.83671,-0.0986 -0.91642,-0.0329 -2e-5,0 z m -17.53711,0.44922 0,9.69434 0,9.69434 1.59375,0 1.59375,0 0,-9.69434 0,-9.69434 -1.59375,0 z m 37.17383,2.36328 1.5291,0.15899 1.28535,0.47773 1.05001,0.70349 0.82499,0.90979 0.6461,1.09725 0.43984,1.26604 0.25332,1.34006 0.0846,1.39626 -0.0846,1.34141 -0.25332,1.32266 -0.40274,1.24626 -0.60898,1.11506 -0.81582,0.91893 -1.02207,0.73147 -1.24726,0.47871 -1.49102,0.15996 -1.44336,-0.15079 -1.25586,-0.45078 -1.03126,-0.70256 -0.84374,-0.90876 -0.62833,-1.07894 -0.45956,-1.21013 -0.25332,-1.32168 -0.0846,-1.34043 0.0754,-1.40642 0.22539,-1.36897 0.39355,-1.27522 0.58106,-1.12517 0.78788,-0.9469 1.0129,-0.7406 1.24628,-0.47773 1.49005,-0.15899 z"
       id="path4197"
       inkscape:connector-curvature="0"
       sodipodi:nodetypes="cccccccccccccccccccccccccccccccccccccccccccccccccccccccccccccccccccccccccccccccccccccccccccccccccccccccccccccccccccccccccccccccccccccccccccccccccccccccscccccccccccccccccccccccccccccccccccccsccccccccccccccccccccscccccccccccccsccccccsscccccccccccccccccccccccccccccccccc" />
  </g>
</svg>
