  0
SECTION
  2
HEADER
  9
$ACADVER
  1
AC1014
  9
$HANDSEED
  5
FFFF
  9
$MEASUREMENT
 70
     1
  0
ENDSEC
  0
SECTION
  2
TABLES
  0
TABLE
  2
VPORT
  5
8
330
0
100
AcDbSymbolTable
 70
     4
  0
VPORT
  5
2E
330
8
100
AcDbSymbolTableRecord
100
AcDbViewportTableRecord
  2
*ACTIVE
 70
     0
 10
0.0
 20
0.0
 11
1.0
 21
1.0
 12
210.0
 22
148.5
 13
0.0
 23
0.0
 14
10.0
 24
10.0
 15
10.0
 25
10.0
 16
0.0
 26
0.0
 36
1.0
 17
0.0
 27
0.0
 37
0.0
 40
341.0
 41
1.24
 42
50.0
 43
0.0
 44
0.0
 50
0.0
 51
0.0
 71
     0
 72
   100
 73
     1
 74
     3
 75
     0
 76
     0
 77
     0
 78
     0
  0
ENDTAB
  0
TABLE
  2
LTYPE
  5
5
330
0
100
AcDbSymbolTable
 70
     1
  0
LTYPE
  5
14
330
5
100
AcDbSymbolTableRecord
100
AcDbLinetypeTableRecord
  2
BYBLOCK
 70
     0
  3

 72
    65
 73
     0
 40
0.0
  0
LTYPE
  5
15
330
5
100
AcDbSymbolTableRecord
100
AcDbLinetypeTableRecord
  2
BYLAYER
 70
     0
  3

 72
    65
 73
     0
 40
0.0
  0
LTYPE
  5
16
330
5
100
AcDbSymbolTableRecord
100
AcDbLinetypeTableRecord
  2
CONTINUOUS
 70
     0
  3
Solid line
 72
    65
 73
     0
 40
0.0
  0
ENDTAB
  0
TABLE
  2
LAYER
  5
2
100
AcDbSymbolTable
 70
2
  0
LAYER
  5
50
100
AcDbSymbolTableRecord
100
AcDbLayerTableRecord
  2
0
 70
0
  6
CONTINUOUS
  0
LAYER
  5
51
100
AcDbSymbolTableRecord
100
AcDbLayerTableRecord
  2
Layer_1
 70
0
  6
CONTINUOUS
  0
ENDTAB
  0
TABLE
  2
STYLE
  5
3
330
0
100
AcDbSymbolTable
 70
     1
  0
STYLE
  5
11
330
3
100
AcDbSymbolTableRecord
100
AcDbTextStyleTableRecord
  2
STANDARD
 70
     0
 40
0.0
 41
1.0
 50
0.0
 71
     0
 42
2.5
  3
txt
  4

  0
ENDTAB
  0
TABLE
  2
VIEW
  5
6
330
0
100
AcDbSymbolTable
 70
     0
  0
ENDTAB
  0
TABLE
  2
UCS
  5
7
330
0
100
AcDbSymbolTable
 70
     0
  0
ENDTAB
  0
TABLE
  2
APPID
  5
9
330
0
100
AcDbSymbolTable
 70
     2
  0
APPID
  5
12
330
9
100
AcDbSymbolTableRecord
100
AcDbRegAppTableRecord
  2
ACAD
 70
     0
  0
ENDTAB
  0
TABLE
  2
DIMSTYLE
  5
A
330
0
100
AcDbSymbolTable
 70
     1
  0
DIMSTYLE
105
27
330
A
100
AcDbSymbolTableRecord
100
AcDbDimStyleTableRecord
  2
ISO-25
 70
     0
  3

  4

  5

  6

  7

 40
1.0
 41
2.5
 42
0.625
 43
3.75
 44
1.25
 45
0.0
 46
0.0
 47
0.0
 48
0.0
140
2.5
141
2.5
142
0.0
143
0.03937007874016
144
1.0
145
0.0
146
1.0
147
0.625
 71
     0
 72
     0
 73
     0
 74
     0
 75
     0
 76
     0
 77
     1
 78
     8
170
     0
171
     3
172
     1
173
     0
174
     0
175
     0
176
     0
177
     0
178
     0
270
     2
271
     2
272
     2
273
     2
274
     3
340
11
275
     0
280
     0
281
     0
282
     0
283
     0
284
     8
285
     0
286
     0
287
     3
288
     0
  0
ENDTAB
  0
TABLE
  2
BLOCK_RECORD
  5
1
330
0
100
AcDbSymbolTable
 70
     1
  0
BLOCK_RECORD
  5
1F
330
1
100
AcDbSymbolTableRecord
100
AcDbBlockTableRecord
  2
*MODEL_SPACE
  0
BLOCK_RECORD
  5
1B
330
1
100
AcDbSymbolTableRecord
100
AcDbBlockTableRecord
  2
*PAPER_SPACE
  0
ENDTAB
  0
ENDSEC
  0
SECTION
  2
BLOCKS
  0
BLOCK
  5
20
330
1F
100
AcDbEntity
  8
0
100
AcDbBlockBegin
  2
*MODEL_SPACE
 70
     0
 10
0.0
 20
0.0
 30
0.0
  3
*MODEL_SPACE
  1

  0
ENDBLK
  5
21
330
1F
100
AcDbEntity
  8
0
100
AcDbBlockEnd
  0
BLOCK
  5
1C
330
1B
100
AcDbEntity
 67
     1
  8
0
100
AcDbBlockBegin
  2
*PAPER_SPACE
  1

  0
ENDBLK
  5
1D
330
1B
100
AcDbEntity
 67
     1
  8
0
100
AcDbBlockEnd
  0
ENDSEC
  0
SECTION
  2
ENTITIES
  0
LINE
  5
100
100
AcDbEntity
  8
Layer_1
 62
7
100
AcDbLine
 10
3.598884
 20
7.906080
 30
0.0
 11
2.754805
 21
7.821247
 31
0.0
  0
LINE
  5
101
100
AcDbEntity
  8
Layer_1
 62
7
100
AcDbLine
 10
2.754805
 20
7.821247
 30
0.0
 11
2.021857
 21
7.567083
 31
0.0
  0
LINE
  5
102
100
AcDbEntity
  8
Layer_1
 62
7
100
AcDbLine
 10
2.021857
 20
7.567083
 30
0.0
 11
1.407798
 21
7.180735
 31
0.0
  0
LINE
  5
103
100
AcDbEntity
  8
Layer_1
 62
7
100
AcDbLine
 10
1.407798
 20
7.180735
 30
0.0
 11
0.899583
 21
6.677970
 31
0.0
  0
LINE
  5
104
100
AcDbEntity
  8
Layer_1
 62
7
100
AcDbLine
 10
0.899583
 20
6.677970
 30
0.0
 11
0.508217
 21
6.069375
 31
0.0
  0
LINE
  5
105
100
AcDbEntity
  8
Layer_1
 62
7
100
AcDbLine
 10
0.508217
 20
6.069375
 30
0.0
 11
0.222690
 21
5.365527
 31
0.0
  0
LINE
  5
106
100
AcDbEntity
  8
Layer_1
 62
7
100
AcDbLine
 10
0.222690
 20
5.365527
 30
0.0
 11
0.055778
 21
4.603702
 31
0.0
  0
LINE
  5
107
100
AcDbEntity
  8
Layer_1
 62
7
100
AcDbLine
 10
0.055778
 20
4.603702
 30
0.0
 11
0.000000
 21
3.799527
 31
0.0
  0
LINE
  5
108
100
AcDbEntity
  8
Layer_1
 62
7
100
AcDbLine
 10
0.000000
 20
3.799527
 30
0.0
 11
0.060960
 21
3.071921
 31
0.0
  0
LINE
  5
109
100
AcDbEntity
  8
Layer_1
 62
7
100
AcDbLine
 10
0.060960
 20
3.071921
 30
0.0
 11
0.243637
 21
2.370777
 31
0.0
  0
LINE
  5
10a
100
AcDbEntity
  8
Layer_1
 62
7
100
AcDbLine
 10
0.243637
 20
2.370777
 30
0.0
 11
0.542502
 21
1.722272
 31
0.0
  0
LINE
  5
10b
100
AcDbEntity
  8
Layer_1
 62
7
100
AcDbLine
 10
0.542502
 20
1.722272
 30
0.0
 11
0.952500
 21
1.153140
 31
0.0
  0
LINE
  5
10c
100
AcDbEntity
  8
Layer_1
 62
7
100
AcDbLine
 10
0.952500
 20
1.153140
 30
0.0
 11
1.468600
 21
0.676890
 31
0.0
  0
LINE
  5
10d
100
AcDbEntity
  8
Layer_1
 62
7
100
AcDbLine
 10
1.468600
 20
0.676890
 30
0.0
 11
2.085247
 21
0.306473
 31
0.0
  0
LINE
  5
10e
100
AcDbEntity
  8
Layer_1
 62
7
100
AcDbLine
 10
2.085247
 20
0.306473
 30
0.0
 11
2.797085
 21
0.076507
 31
0.0
  0
LINE
  5
10f
100
AcDbEntity
  8
Layer_1
 62
7
100
AcDbLine
 10
2.797085
 20
0.076507
 30
0.0
 11
3.598884
 21
-0.000000
 31
0.0
  0
LINE
  5
110
100
AcDbEntity
  8
Layer_1
 62
7
100
AcDbLine
 10
3.598884
 20
-0.000000
 30
0.0
 11
4.262986
 21
0.063280
 31
0.0
  0
LINE
  5
111
100
AcDbEntity
  8
Layer_1
 62
7
100
AcDbLine
 10
4.262986
 20
0.063280
 30
0.0
 11
4.921800
 21
0.253557
 31
0.0
  0
LINE
  5
112
100
AcDbEntity
  8
Layer_1
 62
7
100
AcDbLine
 10
4.921800
 20
0.253557
 30
0.0
 11
5.525107
 21
0.600382
 31
0.0
  0
LINE
  5
113
100
AcDbEntity
  8
Layer_1
 62
7
100
AcDbLine
 10
5.525107
 20
0.600382
 30
0.0
 11
6.022577
 21
1.111250
 31
0.0
  0
LINE
  5
114
100
AcDbEntity
  8
Layer_1
 62
7
100
AcDbLine
 10
6.022577
 20
1.111250
 30
0.0
 11
6.154869
 21
0.640235
 31
0.0
  0
LINE
  5
115
100
AcDbEntity
  8
Layer_1
 62
7
100
AcDbLine
 10
6.154869
 20
0.640235
 30
0.0
 11
6.287160
 21
0.169220
 31
0.0
  0
LINE
  5
116
100
AcDbEntity
  8
Layer_1
 62
7
100
AcDbLine
 10
6.287160
 20
0.169220
 30
0.0
 11
6.604660
 21
0.169220
 31
0.0
  0
LINE
  5
117
100
AcDbEntity
  8
Layer_1
 62
7
100
AcDbLine
 10
6.604660
 20
0.169220
 30
0.0
 11
6.922160
 21
0.169220
 31
0.0
  0
LINE
  5
118
100
AcDbEntity
  8
Layer_1
 62
7
100
AcDbLine
 10
6.922160
 20
0.169220
 30
0.0
 11
6.922160
 21
2.158833
 31
0.0
  0
LINE
  5
119
100
AcDbEntity
  8
Layer_1
 62
7
100
AcDbLine
 10
6.922160
 20
2.158833
 30
0.0
 11
6.922160
 21
4.148443
 31
0.0
  0
LINE
  5
11a
100
AcDbEntity
  8
Layer_1
 62
7
100
AcDbLine
 10
6.922160
 20
4.148443
 30
0.0
 11
5.265759
 21
4.148443
 31
0.0
  0
LINE
  5
11b
100
AcDbEntity
  8
Layer_1
 62
7
100
AcDbLine
 10
5.265759
 20
4.148443
 30
0.0
 11
3.609357
 21
4.148443
 31
0.0
  0
LINE
  5
11c
100
AcDbEntity
  8
Layer_1
 62
7
100
AcDbLine
 10
3.609357
 20
4.148443
 30
0.0
 11
3.609357
 21
3.725110
 31
0.0
  0
LINE
  5
11d
100
AcDbEntity
  8
Layer_1
 62
7
100
AcDbLine
 10
3.609357
 20
3.725110
 30
0.0
 11
3.609357
 21
3.301777
 31
0.0
  0
LINE
  5
11e
100
AcDbEntity
  8
Layer_1
 62
7
100
AcDbLine
 10
3.609357
 20
3.301777
 30
0.0
 11
4.815967
 21
3.301777
 31
0.0
  0
LINE
  5
11f
100
AcDbEntity
  8
Layer_1
 62
7
100
AcDbLine
 10
4.815967
 20
3.301777
 30
0.0
 11
6.022577
 21
3.301777
 31
0.0
  0
LINE
  5
120
100
AcDbEntity
  8
Layer_1
 62
7
100
AcDbLine
 10
6.022577
 20
3.301777
 30
0.0
 11
5.998645
 21
2.799187
 31
0.0
  0
LINE
  5
121
100
AcDbEntity
  8
Layer_1
 62
7
100
AcDbLine
 10
5.998645
 20
2.799187
 30
0.0
 11
5.884762
 21
2.328333
 31
0.0
  0
LINE
  5
122
100
AcDbEntity
  8
Layer_1
 62
7
100
AcDbLine
 10
5.884762
 20
2.328333
 30
0.0
 11
5.686329
 21
1.910235
 31
0.0
  0
LINE
  5
123
100
AcDbEntity
  8
Layer_1
 62
7
100
AcDbLine
 10
5.686329
 20
1.910235
 30
0.0
 11
5.408512
 21
1.545054
 31
0.0
  0
LINE
  5
124
100
AcDbEntity
  8
Layer_1
 62
7
100
AcDbLine
 10
5.408512
 20
1.545054
 30
0.0
 11
5.064667
 21
1.251319
 31
0.0
  0
LINE
  5
125
100
AcDbEntity
  8
Layer_1
 62
7
100
AcDbLine
 10
5.064667
 20
1.251319
 30
0.0
 11
4.646732
 21
1.026360
 31
0.0
  0
LINE
  5
126
100
AcDbEntity
  8
Layer_1
 62
7
100
AcDbLine
 10
4.646732
 20
1.026360
 30
0.0
 11
4.157201
 21
0.883375
 31
0.0
  0
LINE
  5
127
100
AcDbEntity
  8
Layer_1
 62
7
100
AcDbLine
 10
4.157201
 20
0.883375
 30
0.0
 11
3.598872
 21
0.835640
 31
0.0
  0
LINE
  5
128
100
AcDbEntity
  8
Layer_1
 62
7
100
AcDbLine
 10
3.598872
 20
0.835640
 30
0.0
 11
3.000691
 21
0.896597
 31
0.0
  0
LINE
  5
129
100
AcDbEntity
  8
Layer_1
 62
7
100
AcDbLine
 10
3.000691
 20
0.896597
 30
0.0
 11
2.476599
 21
1.079277
 31
0.0
  0
LINE
  5
12a
100
AcDbEntity
  8
Layer_1
 62
7
100
AcDbLine
 10
2.476599
 20
1.079277
 30
0.0
 11
2.037444
 21
1.373067
 31
0.0
  0
LINE
  5
12b
100
AcDbEntity
  8
Layer_1
 62
7
100
AcDbLine
 10
2.037444
 20
1.373067
 30
0.0
 11
1.672376
 21
1.746250
 31
0.0
  0
LINE
  5
12c
100
AcDbEntity
  8
Layer_1
 62
7
100
AcDbLine
 10
1.672376
 20
1.746250
 30
0.0
 11
1.384088
 21
2.198624
 31
0.0
  0
LINE
  5
12d
100
AcDbEntity
  8
Layer_1
 62
7
100
AcDbLine
 10
1.384088
 20
2.198624
 30
0.0
 11
1.175179
 21
2.709220
 31
0.0
  0
LINE
  5
12e
100
AcDbEntity
  8
Layer_1
 62
7
100
AcDbLine
 10
1.175179
 20
2.709220
 30
0.0
 11
1.047956
 21
3.270247
 31
0.0
  0
LINE
  5
12f
100
AcDbEntity
  8
Layer_1
 62
7
100
AcDbLine
 10
1.047956
 20
3.270247
 30
0.0
 11
1.005405
 21
3.852443
 31
0.0
  0
LINE
  5
130
100
AcDbEntity
  8
Layer_1
 62
7
100
AcDbLine
 10
1.005405
 20
3.852443
 30
0.0
 11
1.042501
 21
4.447701
 31
0.0
  0
LINE
  5
131
100
AcDbEntity
  8
Layer_1
 62
7
100
AcDbLine
 10
1.042501
 20
4.447701
 30
0.0
 11
1.153682
 21
5.027083
 31
0.0
  0
LINE
  5
132
100
AcDbEntity
  8
Layer_1
 62
7
100
AcDbLine
 10
1.153682
 20
5.027083
 30
0.0
 11
1.341645
 21
5.574659
 31
0.0
  0
LINE
  5
133
100
AcDbEntity
  8
Layer_1
 62
7
100
AcDbLine
 10
1.341645
 20
5.574659
 30
0.0
 11
1.608986
 21
6.053443
 31
0.0
  0
LINE
  5
134
100
AcDbEntity
  8
Layer_1
 62
7
100
AcDbLine
 10
1.608986
 20
6.053443
 30
0.0
 11
1.968760
 21
6.463611
 31
0.0
  0
LINE
  5
135
100
AcDbEntity
  8
Layer_1
 62
7
100
AcDbLine
 10
1.968760
 20
6.463611
 30
0.0
 11
2.413209
 21
6.783804
 31
0.0
  0
LINE
  5
136
100
AcDbEntity
  8
Layer_1
 62
7
100
AcDbLine
 10
2.413209
 20
6.783804
 30
0.0
 11
2.958414
 21
6.990407
 31
0.0
  0
LINE
  5
137
100
AcDbEntity
  8
Layer_1
 62
7
100
AcDbLine
 10
2.958414
 20
6.990407
 30
0.0
 11
3.598872
 21
7.059413
 31
0.0
  0
LINE
  5
138
100
AcDbEntity
  8
Layer_1
 62
7
100
AcDbLine
 10
3.598872
 20
7.059413
 30
0.0
 11
4.008978
 21
7.032969
 31
0.0
  0
LINE
  5
139
100
AcDbEntity
  8
Layer_1
 62
7
100
AcDbLine
 10
4.008978
 20
7.032969
 30
0.0
 11
4.392622
 21
6.953594
 31
0.0
  0
LINE
  5
13a
100
AcDbEntity
  8
Layer_1
 62
7
100
AcDbLine
 10
4.392622
 20
6.953594
 30
0.0
 11
4.752512
 21
6.831781
 31
0.0
  0
LINE
  5
13b
100
AcDbEntity
  8
Layer_1
 62
7
100
AcDbLine
 10
4.752512
 20
6.831781
 30
0.0
 11
5.070066
 21
6.657041
 31
0.0
  0
LINE
  5
13c
100
AcDbEntity
  8
Layer_1
 62
7
100
AcDbLine
 10
5.070066
 20
6.657041
 30
0.0
 11
5.342475
 21
6.426804
 31
0.0
  0
LINE
  5
13d
100
AcDbEntity
  8
Layer_1
 62
7
100
AcDbLine
 10
5.342475
 20
6.426804
 30
0.0
 11
5.567262
 21
6.138347
 31
0.0
  0
LINE
  5
13e
100
AcDbEntity
  8
Layer_1
 62
7
100
AcDbLine
 10
5.567262
 20
6.138347
 30
0.0
 11
5.736542
 21
5.799686
 31
0.0
  0
LINE
  5
13f
100
AcDbEntity
  8
Layer_1
 62
7
100
AcDbLine
 10
5.736542
 20
5.799686
 30
0.0
 11
5.842319
 21
5.397514
 31
0.0
  0
LINE
  5
140
100
AcDbEntity
  8
Layer_1
 62
7
100
AcDbLine
 10
5.842319
 20
5.397514
 30
0.0
 11
6.345027
 21
5.397514
 31
0.0
  0
LINE
  5
141
100
AcDbEntity
  8
Layer_1
 62
7
100
AcDbLine
 10
6.345027
 20
5.397514
 30
0.0
 11
6.847736
 21
5.397514
 31
0.0
  0
LINE
  5
142
100
AcDbEntity
  8
Layer_1
 62
7
100
AcDbLine
 10
6.847736
 20
5.397514
 30
0.0
 11
6.694444
 21
6.014158
 31
0.0
  0
LINE
  5
143
100
AcDbEntity
  8
Layer_1
 62
7
100
AcDbLine
 10
6.694444
 20
6.014158
 30
0.0
 11
6.445899
 21
6.530261
 31
0.0
  0
LINE
  5
144
100
AcDbEntity
  8
Layer_1
 62
7
100
AcDbLine
 10
6.445899
 20
6.530261
 30
0.0
 11
6.123000
 21
6.963963
 31
0.0
  0
LINE
  5
145
100
AcDbEntity
  8
Layer_1
 62
7
100
AcDbLine
 10
6.123000
 20
6.963963
 30
0.0
 11
5.726012
 21
7.312984
 31
0.0
  0
LINE
  5
146
100
AcDbEntity
  8
Layer_1
 62
7
100
AcDbLine
 10
5.726012
 20
7.312984
 30
0.0
 11
5.271039
 21
7.577743
 31
0.0
  0
LINE
  5
147
100
AcDbEntity
  8
Layer_1
 62
7
100
AcDbLine
 10
5.271039
 20
7.577743
 30
0.0
 11
4.752566
 21
7.757817
 31
0.0
  0
LINE
  5
148
100
AcDbEntity
  8
Layer_1
 62
7
100
AcDbLine
 10
4.752566
 20
7.757817
 30
0.0
 11
4.194240
 21
7.868999
 31
0.0
  0
LINE
  5
149
100
AcDbEntity
  8
Layer_1
 62
7
100
AcDbLine
 10
4.194240
 20
7.868999
 30
0.0
 11
3.598872
 21
7.906094
 31
0.0
  0
LINE
  5
14a
100
AcDbEntity
  8
Layer_1
 62
7
100
AcDbLine
 10
3.598872
 20
7.906094
 30
0.0
 11
3.598884
 21
7.906080
 31
0.0
  0
LINE
  5
14b
100
AcDbEntity
  8
Layer_1
 62
7
100
AcDbLine
 10
11.851680
 20
7.725833
 30
0.0
 11
11.851680
 21
7.175443
 31
0.0
  0
LINE
  5
14c
100
AcDbEntity
  8
Layer_1
 62
7
100
AcDbLine
 10
11.851680
 20
7.175443
 30
0.0
 11
11.851680
 21
6.625054
 31
0.0
  0
LINE
  5
14d
100
AcDbEntity
  8
Layer_1
 62
7
100
AcDbLine
 10
11.851680
 20
6.625054
 30
0.0
 11
12.301471
 21
6.625054
 31
0.0
  0
LINE
  5
14e
100
AcDbEntity
  8
Layer_1
 62
7
100
AcDbLine
 10
12.301471
 20
6.625054
 30
0.0
 11
12.751263
 21
6.625054
 31
0.0
  0
LINE
  5
14f
100
AcDbEntity
  8
Layer_1
 62
7
100
AcDbLine
 10
12.751263
 20
6.625054
 30
0.0
 11
12.751263
 21
7.175443
 31
0.0
  0
LINE
  5
150
100
AcDbEntity
  8
Layer_1
 62
7
100
AcDbLine
 10
12.751263
 20
7.175443
 30
0.0
 11
12.751263
 21
7.725833
 31
0.0
  0
LINE
  5
151
100
AcDbEntity
  8
Layer_1
 62
7
100
AcDbLine
 10
12.751263
 20
7.725833
 30
0.0
 11
12.301471
 21
7.725833
 31
0.0
  0
LINE
  5
152
100
AcDbEntity
  8
Layer_1
 62
7
100
AcDbLine
 10
12.301471
 20
7.725833
 30
0.0
 11
11.851680
 21
7.725833
 31
0.0
  0
LINE
  5
153
100
AcDbEntity
  8
Layer_1
 62
7
100
AcDbLine
 10
24.036844
 20
7.725833
 30
0.0
 11
24.036844
 21
6.318306
 31
0.0
  0
LINE
  5
154
100
AcDbEntity
  8
Layer_1
 62
7
100
AcDbLine
 10
24.036844
 20
6.318306
 30
0.0
 11
24.036844
 21
4.910777
 31
0.0
  0
LINE
  5
155
100
AcDbEntity
  8
Layer_1
 62
7
100
AcDbLine
 10
24.036844
 20
4.910777
 30
0.0
 11
24.026091
 21
4.910777
 31
0.0
  0
LINE
  5
156
100
AcDbEntity
  8
Layer_1
 62
7
100
AcDbLine
 10
24.026091
 20
4.910777
 30
0.0
 11
24.015339
 21
4.910777
 31
0.0
  0
LINE
  5
157
100
AcDbEntity
  8
Layer_1
 62
7
100
AcDbLine
 10
24.015339
 20
4.910777
 30
0.0
 11
23.848650
 21
5.132866
 31
0.0
  0
LINE
  5
158
100
AcDbEntity
  8
Layer_1
 62
7
100
AcDbLine
 10
23.848650
 20
5.132866
 30
0.0
 11
23.644922
 21
5.312610
 31
0.0
  0
LINE
  5
159
100
AcDbEntity
  8
Layer_1
 62
7
100
AcDbLine
 10
23.644922
 20
5.312610
 30
0.0
 11
23.425483
 21
5.463421
 31
0.0
  0
LINE
  5
15a
100
AcDbEntity
  8
Layer_1
 62
7
100
AcDbLine
 10
23.425483
 20
5.463421
 30
0.0
 11
23.190169
 21
5.577193
 31
0.0
  0
LINE
  5
15b
100
AcDbEntity
  8
Layer_1
 62
7
100
AcDbLine
 10
23.190169
 20
5.577193
 30
0.0
 11
22.946532
 21
5.667214
 31
0.0
  0
LINE
  5
15c
100
AcDbEntity
  8
Layer_1
 62
7
100
AcDbLine
 10
22.946532
 20
5.667214
 30
0.0
 11
22.702895
 21
5.725470
 31
0.0
  0
LINE
  5
15d
100
AcDbEntity
  8
Layer_1
 62
7
100
AcDbLine
 10
22.702895
 20
5.725470
 30
0.0
 11
22.467578
 21
5.757277
 31
0.0
  0
LINE
  5
15e
100
AcDbEntity
  8
Layer_1
 62
7
100
AcDbLine
 10
22.467578
 20
5.757277
 30
0.0
 11
22.248142
 21
5.767916
 31
0.0
  0
LINE
  5
15f
100
AcDbEntity
  8
Layer_1
 62
7
100
AcDbLine
 10
22.248142
 20
5.767916
 30
0.0
 11
21.660708
 21
5.709824
 31
0.0
  0
LINE
  5
160
100
AcDbEntity
  8
Layer_1
 62
7
100
AcDbLine
 10
21.660708
 20
5.709824
 30
0.0
 11
21.147365
 21
5.535303
 31
0.0
  0
LINE
  5
161
100
AcDbEntity
  8
Layer_1
 62
7
100
AcDbLine
 10
21.147365
 20
5.535303
 30
0.0
 11
20.718681
 21
5.270615
 31
0.0
  0
LINE
  5
162
100
AcDbEntity
  8
Layer_1
 62
7
100
AcDbLine
 10
20.718681
 20
5.270615
 30
0.0
 11
20.364089
 21
4.921250
 31
0.0
  0
LINE
  5
163
100
AcDbEntity
  8
Layer_1
 62
7
100
AcDbLine
 10
20.364089
 20
4.921250
 30
0.0
 11
20.094157
 21
4.505861
 31
0.0
  0
LINE
  5
164
100
AcDbEntity
  8
Layer_1
 62
7
100
AcDbLine
 10
20.094157
 20
4.505861
 30
0.0
 11
19.898312
 21
4.021666
 31
0.0
  0
LINE
  5
165
100
AcDbEntity
  8
Layer_1
 62
7
100
AcDbLine
 10
19.898312
 20
4.021666
 30
0.0
 11
19.787131
 21
3.487152
 31
0.0
  0
LINE
  5
166
100
AcDbEntity
  8
Layer_1
 62
7
100
AcDbLine
 10
19.787131
 20
3.487152
 30
0.0
 11
19.750035
 21
2.920887
 31
0.0
  0
LINE
  5
167
100
AcDbEntity
  8
Layer_1
 62
7
100
AcDbLine
 10
19.750035
 20
2.920887
 30
0.0
 11
19.789721
 21
2.354625
 31
0.0
  0
LINE
  5
168
100
AcDbEntity
  8
Layer_1
 62
7
100
AcDbLine
 10
19.789721
 20
2.354625
 30
0.0
 11
19.908785
 21
1.820110
 31
0.0
  0
LINE
  5
169
100
AcDbEntity
  8
Layer_1
 62
7
100
AcDbLine
 10
19.908785
 20
1.820110
 30
0.0
 11
20.104631
 21
1.333333
 31
0.0
  0
LINE
  5
16a
100
AcDbEntity
  8
Layer_1
 62
7
100
AcDbLine
 10
20.104631
 20
1.333333
 30
0.0
 11
20.374562
 21
0.910054
 31
0.0
  0
LINE
  5
16b
100
AcDbEntity
  8
Layer_1
 62
7
100
AcDbLine
 10
20.374562
 20
0.910054
 30
0.0
 11
20.729157
 21
0.558111
 31
0.0
  0
LINE
  5
16c
100
AcDbEntity
  8
Layer_1
 62
7
100
AcDbLine
 10
20.729157
 20
0.558111
 30
0.0
 11
21.157839
 21
0.285527
 31
0.0
  0
LINE
  5
16d
100
AcDbEntity
  8
Layer_1
 62
7
100
AcDbLine
 10
21.157839
 20
0.285527
 30
0.0
 11
21.673772
 21
0.111015
 31
0.0
  0
LINE
  5
16e
100
AcDbEntity
  8
Layer_1
 62
7
100
AcDbLine
 10
21.673772
 20
0.111015
 30
0.0
 11
22.269089
 21
0.052916
 31
0.0
  0
LINE
  5
16f
100
AcDbEntity
  8
Layer_1
 62
7
100
AcDbLine
 10
22.269089
 20
0.052916
 30
0.0
 11
22.816831
 21
0.102966
 31
0.0
  0
LINE
  5
170
100
AcDbEntity
  8
Layer_1
 62
7
100
AcDbLine
 10
22.816831
 20
0.102966
 30
0.0
 11
23.316949
 21
0.253557
 31
0.0
  0
LINE
  5
171
100
AcDbEntity
  8
Layer_1
 62
7
100
AcDbLine
 10
23.316949
 20
0.253557
 30
0.0
 11
23.729648
 21
0.518298
 31
0.0
  0
LINE
  5
172
100
AcDbEntity
  8
Layer_1
 62
7
100
AcDbLine
 10
23.729648
 20
0.518298
 30
0.0
 11
24.015339
 21
0.910054
 31
0.0
  0
LINE
  5
173
100
AcDbEntity
  8
Layer_1
 62
7
100
AcDbLine
 10
24.015339
 20
0.910054
 30
0.0
 11
24.026091
 21
0.910054
 31
0.0
  0
LINE
  5
174
100
AcDbEntity
  8
Layer_1
 62
7
100
AcDbLine
 10
24.026091
 20
0.910054
 30
0.0
 11
24.036844
 21
0.910054
 31
0.0
  0
LINE
  5
175
100
AcDbEntity
  8
Layer_1
 62
7
100
AcDbLine
 10
24.036844
 20
0.910054
 30
0.0
 11
24.036844
 21
0.539637
 31
0.0
  0
LINE
  5
176
100
AcDbEntity
  8
Layer_1
 62
7
100
AcDbLine
 10
24.036844
 20
0.539637
 30
0.0
 11
24.036844
 21
0.169220
 31
0.0
  0
LINE
  5
177
100
AcDbEntity
  8
Layer_1
 62
7
100
AcDbLine
 10
24.036844
 20
0.169220
 30
0.0
 11
24.486636
 21
0.169220
 31
0.0
  0
LINE
  5
178
100
AcDbEntity
  8
Layer_1
 62
7
100
AcDbLine
 10
24.486636
 20
0.169220
 30
0.0
 11
24.936427
 21
0.169220
 31
0.0
  0
LINE
  5
179
100
AcDbEntity
  8
Layer_1
 62
7
100
AcDbLine
 10
24.936427
 20
0.169220
 30
0.0
 11
24.936427
 21
3.947527
 31
0.0
  0
LINE
  5
17a
100
AcDbEntity
  8
Layer_1
 62
7
100
AcDbLine
 10
24.936427
 20
3.947527
 30
0.0
 11
24.936427
 21
7.725833
 31
0.0
  0
LINE
  5
17b
100
AcDbEntity
  8
Layer_1
 62
7
100
AcDbLine
 10
24.936427
 20
7.725833
 30
0.0
 11
24.486636
 21
7.725833
 31
0.0
  0
LINE
  5
17c
100
AcDbEntity
  8
Layer_1
 62
7
100
AcDbLine
 10
24.486636
 20
7.725833
 30
0.0
 11
24.036844
 21
7.725833
 31
0.0
  0
LINE
  5
17d
100
AcDbEntity
  8
Layer_1
 62
7
100
AcDbLine
 10
11.110846
 20
5.767916
 30
0.0
 11
10.761571
 21
5.757305
 31
0.0
  0
LINE
  5
17e
100
AcDbEntity
  8
Layer_1
 62
7
100
AcDbLine
 10
10.761571
 20
5.757305
 30
0.0
 11
10.444040
 21
5.704318
 31
0.0
  0
LINE
  5
17f
100
AcDbEntity
  8
Layer_1
 62
7
100
AcDbLine
 10
10.444040
 20
5.704318
 30
0.0
 11
10.158259
 21
5.608991
 31
0.0
  0
LINE
  5
180
100
AcDbEntity
  8
Layer_1
 62
7
100
AcDbLine
 10
10.158259
 20
5.608991
 30
0.0
 11
9.904236
 21
5.471366
 31
0.0
  0
LINE
  5
181
100
AcDbEntity
  8
Layer_1
 62
7
100
AcDbLine
 10
9.904236
 20
5.471366
 30
0.0
 11
9.675385
 21
5.290842
 31
0.0
  0
LINE
  5
182
100
AcDbEntity
  8
Layer_1
 62
7
100
AcDbLine
 10
9.675385
 20
5.290842
 30
0.0
 11
9.465081
 21
5.066733
 31
0.0
  0
LINE
  5
183
100
AcDbEntity
  8
Layer_1
 62
7
100
AcDbLine
 10
9.465081
 20
5.066733
 30
0.0
 11
9.273300
 21
4.798957
 31
0.0
  0
LINE
  5
184
100
AcDbEntity
  8
Layer_1
 62
7
100
AcDbLine
 10
9.273300
 20
4.798957
 30
0.0
 11
9.100013
 21
4.487449
 31
0.0
  0
LINE
  5
185
100
AcDbEntity
  8
Layer_1
 62
7
100
AcDbLine
 10
9.100013
 20
4.487449
 30
0.0
 11
9.094651
 21
4.487449
 31
0.0
  0
LINE
  5
186
100
AcDbEntity
  8
Layer_1
 62
7
100
AcDbLine
 10
9.094651
 20
4.487449
 30
0.0
 11
9.089288
 21
4.487449
 31
0.0
  0
LINE
  5
187
100
AcDbEntity
  8
Layer_1
 62
7
100
AcDbLine
 10
9.089288
 20
4.487449
 30
0.0
 11
9.083926
 21
4.487449
 31
0.0
  0
LINE
  5
188
100
AcDbEntity
  8
Layer_1
 62
7
100
AcDbLine
 10
9.083926
 20
4.487449
 30
0.0
 11
9.078564
 21
4.487449
 31
0.0
  0
LINE
  5
189
100
AcDbEntity
  8
Layer_1
 62
7
100
AcDbLine
 10
9.078564
 20
4.487449
 30
0.0
 11
9.078564
 21
4.775874
 31
0.0
  0
LINE
  5
18a
100
AcDbEntity
  8
Layer_1
 62
7
100
AcDbLine
 10
9.078564
 20
4.775874
 30
0.0
 11
9.078564
 21
5.064297
 31
0.0
  0
LINE
  5
18b
100
AcDbEntity
  8
Layer_1
 62
7
100
AcDbLine
 10
9.078564
 20
5.064297
 30
0.0
 11
9.078564
 21
5.352720
 31
0.0
  0
LINE
  5
18c
100
AcDbEntity
  8
Layer_1
 62
7
100
AcDbLine
 10
9.078564
 20
5.352720
 30
0.0
 11
9.078564
 21
5.641142
 31
0.0
  0
LINE
  5
18d
100
AcDbEntity
  8
Layer_1
 62
7
100
AcDbLine
 10
9.078564
 20
5.641142
 30
0.0
 11
8.655231
 21
5.641142
 31
0.0
  0
LINE
  5
18e
100
AcDbEntity
  8
Layer_1
 62
7
100
AcDbLine
 10
8.655231
 20
5.641142
 30
0.0
 11
8.231897
 21
5.641142
 31
0.0
  0
LINE
  5
18f
100
AcDbEntity
  8
Layer_1
 62
7
100
AcDbLine
 10
8.231897
 20
5.641142
 30
0.0
 11
8.231897
 21
2.905184
 31
0.0
  0
LINE
  5
190
100
AcDbEntity
  8
Layer_1
 62
7
100
AcDbLine
 10
8.231897
 20
2.905184
 30
0.0
 11
8.231897
 21
0.169226
 31
0.0
  0
LINE
  5
191
100
AcDbEntity
  8
Layer_1
 62
7
100
AcDbLine
 10
8.231897
 20
0.169226
 30
0.0
 11
8.681689
 21
0.169226
 31
0.0
  0
LINE
  5
192
100
AcDbEntity
  8
Layer_1
 62
7
100
AcDbLine
 10
8.681689
 20
0.169226
 30
0.0
 11
9.131481
 21
0.169226
 31
0.0
  0
LINE
  5
193
100
AcDbEntity
  8
Layer_1
 62
7
100
AcDbLine
 10
9.131481
 20
0.169226
 30
0.0
 11
9.131481
 21
1.386309
 31
0.0
  0
LINE
  5
194
100
AcDbEntity
  8
Layer_1
 62
7
100
AcDbLine
 10
9.131481
 20
1.386309
 30
0.0
 11
9.131481
 21
2.603393
 31
0.0
  0
LINE
  5
195
100
AcDbEntity
  8
Layer_1
 62
7
100
AcDbLine
 10
9.131481
 20
2.603393
 30
0.0
 11
9.157925
 21
3.100919
 31
0.0
  0
LINE
  5
196
100
AcDbEntity
  8
Layer_1
 62
7
100
AcDbLine
 10
9.157925
 20
3.100919
 30
0.0
 11
9.237303
 21
3.534949
 31
0.0
  0
LINE
  5
197
100
AcDbEntity
  8
Layer_1
 62
7
100
AcDbLine
 10
9.237303
 20
3.534949
 30
0.0
 11
9.375050
 21
3.915898
 31
0.0
  0
LINE
  5
198
100
AcDbEntity
  8
Layer_1
 62
7
100
AcDbLine
 10
9.375050
 20
3.915898
 30
0.0
 11
9.576300
 21
4.233339
 31
0.0
  0
LINE
  5
199
100
AcDbEntity
  8
Layer_1
 62
7
100
AcDbLine
 10
9.576300
 20
4.233339
 30
0.0
 11
9.701925
 21
4.367606
 31
0.0
  0
LINE
  5
19a
100
AcDbEntity
  8
Layer_1
 62
7
100
AcDbLine
 10
9.701925
 20
4.367606
 30
0.0
 11
9.846008
 21
4.484644
 31
0.0
  0
LINE
  5
19b
100
AcDbEntity
  8
Layer_1
 62
7
100
AcDbLine
 10
9.846008
 20
4.484644
 30
0.0
 11
10.008610
 21
4.584480
 31
0.0
  0
LINE
  5
19c
100
AcDbEntity
  8
Layer_1
 62
7
100
AcDbLine
 10
10.008610
 20
4.584480
 30
0.0
 11
10.189803
 21
4.667143
 31
0.0
  0
LINE
  5
19d
100
AcDbEntity
  8
Layer_1
 62
7
100
AcDbLine
 10
10.189803
 20
4.667143
 30
0.0
 11
10.390279
 21
4.731983
 31
0.0
  0
LINE
  5
19e
100
AcDbEntity
  8
Layer_1
 62
7
100
AcDbLine
 10
10.390279
 20
4.731983
 30
0.0
 11
10.610652
 21
4.778324
 31
0.0
  0
LINE
  5
19f
100
AcDbEntity
  8
Layer_1
 62
7
100
AcDbLine
 10
10.610652
 20
4.778324
 30
0.0
 11
10.850872
 21
4.806151
 31
0.0
  0
LINE
  5
1a0
100
AcDbEntity
  8
Layer_1
 62
7
100
AcDbLine
 10
10.850872
 20
4.806151
 30
0.0
 11
11.110883
 21
4.815436
 31
0.0
  0
LINE
  5
1a1
100
AcDbEntity
  8
Layer_1
 62
7
100
AcDbLine
 10
11.110883
 20
4.815436
 30
0.0
 11
11.110883
 21
5.053561
 31
0.0
  0
LINE
  5
1a2
100
AcDbEntity
  8
Layer_1
 62
7
100
AcDbLine
 10
11.110883
 20
5.053561
 30
0.0
 11
11.110883
 21
5.291686
 31
0.0
  0
LINE
  5
1a3
100
AcDbEntity
  8
Layer_1
 62
7
100
AcDbLine
 10
11.110883
 20
5.291686
 30
0.0
 11
11.110891
 21
5.529811
 31
0.0
  0
LINE
  5
1a4
100
AcDbEntity
  8
Layer_1
 62
7
100
AcDbLine
 10
11.110891
 20
5.529811
 30
0.0
 11
11.110846
 21
5.767916
 31
0.0
  0
LINE
  5
1a5
100
AcDbEntity
  8
Layer_1
 62
7
100
AcDbLine
 10
16.801042
 20
5.767916
 30
0.0
 11
16.233462
 21
5.705729
 31
0.0
  0
LINE
  5
1a6
100
AcDbEntity
  8
Layer_1
 62
7
100
AcDbLine
 10
16.233462
 20
5.705729
 30
0.0
 11
15.980418
 21
5.627991
 31
0.0
  0
LINE
  5
1a7
100
AcDbEntity
  8
Layer_1
 62
7
100
AcDbLine
 10
15.980418
 20
5.627991
 30
0.0
 11
15.747881
 21
5.519166
 31
0.0
  0
LINE
  5
1a8
100
AcDbEntity
  8
Layer_1
 62
7
100
AcDbLine
 10
15.747881
 20
5.519166
 30
0.0
 11
15.344326
 21
5.208244
 31
0.0
  0
LINE
  5
1a9
100
AcDbEntity
  8
Layer_1
 62
7
100
AcDbLine
 10
15.344326
 20
5.208244
 30
0.0
 11
15.022822
 21
4.772970
 31
0.0
  0
LINE
  5
1aa
100
AcDbEntity
  8
Layer_1
 62
7
100
AcDbLine
 10
15.022822
 20
4.772970
 30
0.0
 11
15.017572
 21
4.772970
 31
0.0
  0
LINE
  5
1ab
100
AcDbEntity
  8
Layer_1
 62
7
100
AcDbLine
 10
15.017572
 20
4.772970
 30
0.0
 11
15.012323
 21
4.772970
 31
0.0
  0
LINE
  5
1ac
100
AcDbEntity
  8
Layer_1
 62
7
100
AcDbLine
 10
15.012323
 20
4.772970
 30
0.0
 11
15.007074
 21
4.772970
 31
0.0
  0
LINE
  5
1ad
100
AcDbEntity
  8
Layer_1
 62
7
100
AcDbLine
 10
15.007074
 20
4.772970
 30
0.0
 11
15.001824
 21
4.772970
 31
0.0
  0
LINE
  5
1ae
100
AcDbEntity
  8
Layer_1
 62
7
100
AcDbLine
 10
15.001824
 20
4.772970
 30
0.0
 11
15.001824
 21
4.990010
 31
0.0
  0
LINE
  5
1af
100
AcDbEntity
  8
Layer_1
 62
7
100
AcDbLine
 10
15.001824
 20
4.990010
 30
0.0
 11
15.001824
 21
5.207053
 31
0.0
  0
LINE
  5
1b0
100
AcDbEntity
  8
Layer_1
 62
7
100
AcDbLine
 10
15.001824
 20
5.207053
 30
0.0
 11
15.001824
 21
5.424094
 31
0.0
  0
LINE
  5
1b1
100
AcDbEntity
  8
Layer_1
 62
7
100
AcDbLine
 10
15.001824
 20
5.424094
 30
0.0
 11
15.001824
 21
5.641137
 31
0.0
  0
LINE
  5
1b2
100
AcDbEntity
  8
Layer_1
 62
7
100
AcDbLine
 10
15.001824
 20
5.641137
 30
0.0
 11
14.578491
 21
5.641137
 31
0.0
  0
LINE
  5
1b3
100
AcDbEntity
  8
Layer_1
 62
7
100
AcDbLine
 10
14.578491
 20
5.641137
 30
0.0
 11
14.155158
 21
5.641137
 31
0.0
  0
LINE
  5
1b4
100
AcDbEntity
  8
Layer_1
 62
7
100
AcDbLine
 10
14.155158
 20
5.641137
 30
0.0
 11
14.155158
 21
2.905178
 31
0.0
  0
LINE
  5
1b5
100
AcDbEntity
  8
Layer_1
 62
7
100
AcDbLine
 10
14.155158
 20
2.905178
 30
0.0
 11
14.155158
 21
0.169220
 31
0.0
  0
LINE
  5
1b6
100
AcDbEntity
  8
Layer_1
 62
7
100
AcDbLine
 10
14.155158
 20
0.169220
 30
0.0
 11
14.604949
 21
0.169220
 31
0.0
  0
LINE
  5
1b7
100
AcDbEntity
  8
Layer_1
 62
7
100
AcDbLine
 10
14.604949
 20
0.169220
 30
0.0
 11
15.054741
 21
0.169220
 31
0.0
  0
LINE
  5
1b8
100
AcDbEntity
  8
Layer_1
 62
7
100
AcDbLine
 10
15.054741
 20
0.169220
 30
0.0
 11
15.054741
 21
1.714277
 31
0.0
  0
LINE
  5
1b9
100
AcDbEntity
  8
Layer_1
 62
7
100
AcDbLine
 10
15.054741
 20
1.714277
 30
0.0
 11
15.054741
 21
3.259333
 31
0.0
  0
LINE
  5
1ba
100
AcDbEntity
  8
Layer_1
 62
7
100
AcDbLine
 10
15.054741
 20
3.259333
 30
0.0
 11
15.078617
 21
3.613932
 31
0.0
  0
LINE
  5
1bb
100
AcDbEntity
  8
Layer_1
 62
7
100
AcDbLine
 10
15.078617
 20
3.613932
 30
0.0
 11
15.150112
 21
3.936777
 31
0.0
  0
LINE
  5
1bc
100
AcDbEntity
  8
Layer_1
 62
7
100
AcDbLine
 10
15.150112
 20
3.936777
 30
0.0
 11
15.279813
 21
4.233277
 31
0.0
  0
LINE
  5
1bd
100
AcDbEntity
  8
Layer_1
 62
7
100
AcDbLine
 10
15.279813
 20
4.233277
 30
0.0
 11
15.457139
 21
4.487443
 31
0.0
  0
LINE
  5
1be
100
AcDbEntity
  8
Layer_1
 62
7
100
AcDbLine
 10
15.457139
 20
4.487443
 30
0.0
 11
15.681923
 21
4.693880
 31
0.0
  0
LINE
  5
1bf
100
AcDbEntity
  8
Layer_1
 62
7
100
AcDbLine
 10
15.681923
 20
4.693880
 30
0.0
 11
15.812152
 21
4.777257
 31
0.0
  0
LINE
  5
1c0
100
AcDbEntity
  8
Layer_1
 62
7
100
AcDbLine
 10
15.812152
 20
4.777257
 30
0.0
 11
15.954335
 21
4.847387
 31
0.0
  0
LINE
  5
1c1
100
AcDbEntity
  8
Layer_1
 62
7
100
AcDbLine
 10
15.954335
 20
4.847387
 30
0.0
 11
16.114240
 21
4.903396
 31
0.0
  0
LINE
  5
1c2
100
AcDbEntity
  8
Layer_1
 62
7
100
AcDbLine
 10
16.114240
 20
4.903396
 30
0.0
 11
16.287818
 21
4.942527
 31
0.0
  0
LINE
  5
1c3
100
AcDbEntity
  8
Layer_1
 62
7
100
AcDbLine
 10
16.287818
 20
4.942527
 30
0.0
 11
16.474420
 21
4.966261
 31
0.0
  0
LINE
  5
1c4
100
AcDbEntity
  8
Layer_1
 62
7
100
AcDbLine
 10
16.474420
 20
4.966261
 30
0.0
 11
16.674222
 21
4.974164
 31
0.0
  0
LINE
  5
1c5
100
AcDbEntity
  8
Layer_1
 62
7
100
AcDbLine
 10
16.674222
 20
4.974164
 30
0.0
 11
17.137134
 21
4.899970
 31
0.0
  0
LINE
  5
1c6
100
AcDbEntity
  8
Layer_1
 62
7
100
AcDbLine
 10
17.137134
 20
4.899970
 30
0.0
 11
17.488919
 21
4.677607
 31
0.0
  0
LINE
  5
1c7
100
AcDbEntity
  8
Layer_1
 62
7
100
AcDbLine
 10
17.488919
 20
4.677607
 30
0.0
 11
17.711282
 21
4.328414
 31
0.0
  0
LINE
  5
1c8
100
AcDbEntity
  8
Layer_1
 62
7
100
AcDbLine
 10
17.711282
 20
4.328414
 30
0.0
 11
17.785472
 21
3.873384
 31
0.0
  0
LINE
  5
1c9
100
AcDbEntity
  8
Layer_1
 62
7
100
AcDbLine
 10
17.785472
 20
3.873384
 30
0.0
 11
17.785472
 21
2.021301
 31
0.0
  0
LINE
  5
1ca
100
AcDbEntity
  8
Layer_1
 62
7
100
AcDbLine
 10
17.785472
 20
2.021301
 30
0.0
 11
17.785472
 21
0.169217
 31
0.0
  0
LINE
  5
1cb
100
AcDbEntity
  8
Layer_1
 62
7
100
AcDbLine
 10
17.785472
 20
0.169217
 30
0.0
 11
18.235264
 21
0.169217
 31
0.0
  0
LINE
  5
1cc
100
AcDbEntity
  8
Layer_1
 62
7
100
AcDbLine
 10
18.235264
 20
0.169217
 30
0.0
 11
18.685056
 21
0.169217
 31
0.0
  0
LINE
  5
1cd
100
AcDbEntity
  8
Layer_1
 62
7
100
AcDbLine
 10
18.685056
 20
0.169217
 30
0.0
 11
18.685056
 21
1.968384
 31
0.0
  0
LINE
  5
1ce
100
AcDbEntity
  8
Layer_1
 62
7
100
AcDbLine
 10
18.685056
 20
1.968384
 30
0.0
 11
18.685056
 21
3.767551
 31
0.0
  0
LINE
  5
1cf
100
AcDbEntity
  8
Layer_1
 62
7
100
AcDbLine
 10
18.685056
 20
3.767551
 30
0.0
 11
18.661180
 21
4.190830
 31
0.0
  0
LINE
  5
1d0
100
AcDbEntity
  8
Layer_1
 62
7
100
AcDbLine
 10
18.661180
 20
4.190830
 30
0.0
 11
18.589687
 21
4.571774
 31
0.0
  0
LINE
  5
1d1
100
AcDbEntity
  8
Layer_1
 62
7
100
AcDbLine
 10
18.589687
 20
4.571774
 30
0.0
 11
18.470570
 21
4.915727
 31
0.0
  0
LINE
  5
1d2
100
AcDbEntity
  8
Layer_1
 62
7
100
AcDbLine
 10
18.470570
 20
4.915727
 30
0.0
 11
18.282660
 21
5.206774
 31
0.0
  0
LINE
  5
1d3
100
AcDbEntity
  8
Layer_1
 62
7
100
AcDbLine
 10
18.282660
 20
5.206774
 30
0.0
 11
18.026016
 21
5.442308
 31
0.0
  0
LINE
  5
1d4
100
AcDbEntity
  8
Layer_1
 62
7
100
AcDbLine
 10
18.026016
 20
5.442308
 30
0.0
 11
17.700577
 21
5.619634
 31
0.0
  0
LINE
  5
1d5
100
AcDbEntity
  8
Layer_1
 62
7
100
AcDbLine
 10
17.700577
 20
5.619634
 30
0.0
 11
17.509414
 21
5.684483
 31
0.0
  0
LINE
  5
1d6
100
AcDbEntity
  8
Layer_1
 62
7
100
AcDbLine
 10
17.509414
 20
5.684483
 30
0.0
 11
17.295766
 21
5.730824
 31
0.0
  0
LINE
  5
1d7
100
AcDbEntity
  8
Layer_1
 62
7
100
AcDbLine
 10
17.295766
 20
5.730824
 30
0.0
 11
17.059628
 21
5.758651
 31
0.0
  0
LINE
  5
1d8
100
AcDbEntity
  8
Layer_1
 62
7
100
AcDbLine
 10
17.059628
 20
5.758651
 30
0.0
 11
16.800994
 21
5.767936
 31
0.0
  0
LINE
  5
1d9
100
AcDbEntity
  8
Layer_1
 62
7
100
AcDbLine
 10
16.800994
 20
5.767936
 30
0.0
 11
16.800988
 21
5.767936
 31
0.0
  0
LINE
  5
1da
100
AcDbEntity
  8
Layer_1
 62
7
100
AcDbLine
 10
16.800988
 20
5.767936
 30
0.0
 11
16.801042
 21
5.767916
 31
0.0
  0
LINE
  5
1db
100
AcDbEntity
  8
Layer_1
 62
7
100
AcDbLine
 10
11.851680
 20
5.641137
 30
0.0
 11
11.851680
 21
2.905178
 31
0.0
  0
LINE
  5
1dc
100
AcDbEntity
  8
Layer_1
 62
7
100
AcDbLine
 10
11.851680
 20
2.905178
 30
0.0
 11
11.851680
 21
0.169220
 31
0.0
  0
LINE
  5
1dd
100
AcDbEntity
  8
Layer_1
 62
7
100
AcDbLine
 10
11.851680
 20
0.169220
 30
0.0
 11
12.301471
 21
0.169220
 31
0.0
  0
LINE
  5
1de
100
AcDbEntity
  8
Layer_1
 62
7
100
AcDbLine
 10
12.301471
 20
0.169220
 30
0.0
 11
12.751263
 21
0.169220
 31
0.0
  0
LINE
  5
1df
100
AcDbEntity
  8
Layer_1
 62
7
100
AcDbLine
 10
12.751263
 20
0.169220
 30
0.0
 11
12.751263
 21
2.905178
 31
0.0
  0
LINE
  5
1e0
100
AcDbEntity
  8
Layer_1
 62
7
100
AcDbLine
 10
12.751263
 20
2.905178
 30
0.0
 11
12.751263
 21
5.641137
 31
0.0
  0
LINE
  5
1e1
100
AcDbEntity
  8
Layer_1
 62
7
100
AcDbLine
 10
12.751263
 20
5.641137
 30
0.0
 11
12.301471
 21
5.641137
 31
0.0
  0
LINE
  5
1e2
100
AcDbEntity
  8
Layer_1
 62
7
100
AcDbLine
 10
12.301471
 20
5.641137
 30
0.0
 11
11.851680
 21
5.641137
 31
0.0
  0
LINE
  5
1e3
100
AcDbEntity
  8
Layer_1
 62
7
100
AcDbLine
 10
22.342960
 20
4.974166
 30
0.0
 11
22.774506
 21
4.929296
 31
0.0
  0
LINE
  5
1e4
100
AcDbEntity
  8
Layer_1
 62
7
100
AcDbLine
 10
22.774506
 20
4.929296
 30
0.0
 11
23.137261
 21
4.794470
 31
0.0
  0
LINE
  5
1e5
100
AcDbEntity
  8
Layer_1
 62
7
100
AcDbLine
 10
23.137261
 20
4.794470
 30
0.0
 11
23.433597
 21
4.595929
 31
0.0
  0
LINE
  5
1e6
100
AcDbEntity
  8
Layer_1
 62
7
100
AcDbLine
 10
23.433597
 20
4.595929
 30
0.0
 11
23.666427
 21
4.339166
 31
0.0
  0
LINE
  5
1e7
100
AcDbEntity
  8
Layer_1
 62
7
100
AcDbLine
 10
23.666427
 20
4.339166
 30
0.0
 11
23.848771
 21
4.029498
 31
0.0
  0
LINE
  5
1e8
100
AcDbEntity
  8
Layer_1
 62
7
100
AcDbLine
 10
23.848771
 20
4.029498
 30
0.0
 11
23.972904
 21
3.672193
 31
0.0
  0
LINE
  5
1e9
100
AcDbEntity
  8
Layer_1
 62
7
100
AcDbLine
 10
23.972904
 20
3.672193
 30
0.0
 11
24.044396
 21
3.293999
 31
0.0
  0
LINE
  5
1ea
100
AcDbEntity
  8
Layer_1
 62
7
100
AcDbLine
 10
24.044396
 20
3.293999
 30
0.0
 11
24.068272
 21
2.899943
 31
0.0
  0
LINE
  5
1eb
100
AcDbEntity
  8
Layer_1
 62
7
100
AcDbLine
 10
24.068272
 20
2.899943
 30
0.0
 11
24.044396
 21
2.521367
 31
0.0
  0
LINE
  5
1ec
100
AcDbEntity
  8
Layer_1
 62
7
100
AcDbLine
 10
24.044396
 20
2.521367
 30
0.0
 11
23.972904
 21
2.148083
 31
0.0
  0
LINE
  5
1ed
100
AcDbEntity
  8
Layer_1
 62
7
100
AcDbLine
 10
23.972904
 20
2.148083
 30
0.0
 11
23.859242
 21
1.796361
 31
0.0
  0
LINE
  5
1ee
100
AcDbEntity
  8
Layer_1
 62
7
100
AcDbLine
 10
23.859242
 20
1.796361
 30
0.0
 11
23.687374
 21
1.481666
 31
0.0
  0
LINE
  5
1ef
100
AcDbEntity
  8
Layer_1
 62
7
100
AcDbLine
 10
23.687374
 20
1.481666
 30
0.0
 11
23.457131
 21
1.222324
 31
0.0
  0
LINE
  5
1f0
100
AcDbEntity
  8
Layer_1
 62
7
100
AcDbLine
 10
23.457131
 20
1.222324
 30
0.0
 11
23.168681
 21
1.015887
 31
0.0
  0
LINE
  5
1f1
100
AcDbEntity
  8
Layer_1
 62
7
100
AcDbLine
 10
23.168681
 20
1.015887
 30
0.0
 11
22.816676
 21
0.880784
 31
0.0
  0
LINE
  5
1f2
100
AcDbEntity
  8
Layer_1
 62
7
100
AcDbLine
 10
22.816676
 20
0.880784
 30
0.0
 11
22.395877
 21
0.835640
 31
0.0
  0
LINE
  5
1f3
100
AcDbEntity
  8
Layer_1
 62
7
100
AcDbLine
 10
22.395877
 20
0.835640
 30
0.0
 11
21.988529
 21
0.878196
 31
0.0
  0
LINE
  5
1f4
100
AcDbEntity
  8
Layer_1
 62
7
100
AcDbLine
 10
21.988529
 20
0.878196
 30
0.0
 11
21.634097
 21
1.005416
 31
0.0
  0
LINE
  5
1f5
100
AcDbEntity
  8
Layer_1
 62
7
100
AcDbLine
 10
21.634097
 20
1.005416
 30
0.0
 11
21.343053
 21
1.203694
 31
0.0
  0
LINE
  5
1f6
100
AcDbEntity
  8
Layer_1
 62
7
100
AcDbLine
 10
21.343053
 20
1.203694
 30
0.0
 11
21.104931
 21
1.460167
 31
0.0
  0
LINE
  5
1f7
100
AcDbEntity
  8
Layer_1
 62
7
100
AcDbLine
 10
21.104931
 20
1.460167
 30
0.0
 11
20.927602
 21
1.764668
 31
0.0
  0
LINE
  5
1f8
100
AcDbEntity
  8
Layer_1
 62
7
100
AcDbLine
 10
20.927602
 20
1.764668
 30
0.0
 11
20.797904
 21
2.106193
 31
0.0
  0
LINE
  5
1f9
100
AcDbEntity
  8
Layer_1
 62
7
100
AcDbLine
 10
20.797904
 20
2.106193
 30
0.0
 11
20.726411
 21
2.479201
 31
0.0
  0
LINE
  5
1fa
100
AcDbEntity
  8
Layer_1
 62
7
100
AcDbLine
 10
20.726411
 20
2.479201
 30
0.0
 11
20.702535
 21
2.857500
 31
0.0
  0
LINE
  5
1fb
100
AcDbEntity
  8
Layer_1
 62
7
100
AcDbLine
 10
20.702535
 20
2.857500
 30
0.0
 11
20.723815
 21
3.254423
 31
0.0
  0
LINE
  5
1fc
100
AcDbEntity
  8
Layer_1
 62
7
100
AcDbLine
 10
20.723815
 20
3.254423
 30
0.0
 11
20.787425
 21
3.640777
 31
0.0
  0
LINE
  5
1fd
100
AcDbEntity
  8
Layer_1
 62
7
100
AcDbLine
 10
20.787425
 20
3.640777
 30
0.0
 11
20.898493
 21
4.000672
 31
0.0
  0
LINE
  5
1fe
100
AcDbEntity
  8
Layer_1
 62
7
100
AcDbLine
 10
20.898493
 20
4.000672
 30
0.0
 11
21.062482
 21
4.318220
 31
0.0
  0
LINE
  5
1ff
100
AcDbEntity
  8
Layer_1
 62
7
100
AcDbLine
 10
21.062482
 20
4.318220
 30
0.0
 11
21.284839
 21
4.585456
 31
0.0
  0
LINE
  5
200
100
AcDbEntity
  8
Layer_1
 62
7
100
AcDbLine
 10
21.284839
 20
4.585456
 30
0.0
 11
21.570702
 21
4.794470
 31
0.0
  0
LINE
  5
201
100
AcDbEntity
  8
Layer_1
 62
7
100
AcDbLine
 10
21.570702
 20
4.794470
 30
0.0
 11
21.922430
 21
4.929296
 31
0.0
  0
LINE
  5
202
100
AcDbEntity
  8
Layer_1
 62
7
100
AcDbLine
 10
21.922430
 20
4.929296
 30
0.0
 11
22.342955
 21
4.974166
 31
0.0
  0
LINE
  5
203
100
AcDbEntity
  8
Layer_1
 62
7
100
AcDbLine
 10
22.342955
 20
4.974166
 30
0.0
 11
22.342960
 21
4.974166
 31
0.0
  0
ENDSEC
  0
SECTION
  2
OBJECTS
  0
DICTIONARY
  5
C
330
0
100
AcDbDictionary
  3
ACAD_GROUP
350
D
  3
ACAD_MLINESTYLE
350
17
  0
DICTIONARY
  5
D
330
C
100
AcDbDictionary
  0
DICTIONARY
  5
1A
330
C
100
AcDbDictionary
  0
DICTIONARY
  5
17
330
C
100
AcDbDictionary
  3
STANDARD
350
18
  0
DICTIONARY
  5
19
330
C
100
AcDbDictionary
  0
ENDSEC
  0
EOF
