<?xml version="1.0" encoding="UTF-8" standalone="no"?>
<!-- Created with Inkscape (http://www.inkscape.org/) -->

<svg
   xmlns:dc="http://purl.org/dc/elements/1.1/"
   xmlns:cc="http://creativecommons.org/ns#"
   xmlns:rdf="http://www.w3.org/1999/02/22-rdf-syntax-ns#"
   xmlns:svg="http://www.w3.org/2000/svg"
   xmlns="http://www.w3.org/2000/svg"
   xmlns:sodipodi="http://sodipodi.sourceforge.net/DTD/sodipodi-0.dtd"
   xmlns:inkscape="http://www.inkscape.org/namespaces/inkscape"
   width="42.519684"
   height="42.519684"
   id="svg2"
   version="1.1"
   inkscape:version="0.48.3.1 r9886"
   sodipodi:docname="vacuum part.svg">
  <defs
     id="defs4" />
  <sodipodi:namedview
     id="base"
     pagecolor="#ffffff"
     bordercolor="#666666"
     borderopacity="1.0"
     inkscape:pageopacity="0.0"
     inkscape:pageshadow="2"
     inkscape:zoom="7.9195959"
     inkscape:cx="15.758191"
     inkscape:cy="12.696726"
     inkscape:document-units="mm"
     inkscape:current-layer="layer1"
     showgrid="false"
     units="mm"
     fit-margin-top="0"
     fit-margin-left="0"
     fit-margin-right="0"
     fit-margin-bottom="0"
     inkscape:window-width="1364"
     inkscape:window-height="747"
     inkscape:window-x="0"
     inkscape:window-y="19"
     inkscape:window-maximized="0" />
  <metadata
     id="metadata7">
    <rdf:RDF>
      <cc:Work
         rdf:about="">
        <dc:format>image/svg+xml</dc:format>
        <dc:type
           rdf:resource="http://purl.org/dc/dcmitype/StillImage" />
        <dc:title></dc:title>
      </cc:Work>
    </rdf:RDF>
  </metadata>
  <g
     inkscape:label="Layer 1"
     inkscape:groupmode="layer"
     id="layer1"
     transform="translate(-254.28572,-360.93362)">
    <path
       style="fill:#ffff00;stroke:none"
       d="M 8.5625 0 C 3.8139287 0 0 3.8139287 0 8.5625 L 0 33.9375 C 0 38.686071 3.8139287 42.53125 8.5625 42.53125 L 33.9375 42.53125 C 38.686071 42.53125 42.53125 38.686071 42.53125 33.9375 L 42.53125 8.5625 C 42.53125 3.8139287 38.686071 0 33.9375 0 L 8.5625 0 z M 21.28125 8.875 C 28.130451 8.875 33.65625 14.400799 33.65625 21.25 C 33.65625 28.099201 28.130451 33.65625 21.28125 33.65625 C 14.432049 33.65625 8.875 28.099201 8.875 21.25 C 8.875 14.400799 14.432049 8.875 21.28125 8.875 z "
       transform="translate(254.28572,360.93362)"
       id="rect2985" />
  </g>
</svg>
