solid OpenSCAD_Model
  facet normal -1 0 0
    outer loop
      vertex -2 4 0
      vertex -2 4 7.00001
      vertex -2 18.5 2
    endloop
  endfacet
  facet normal -1 0 0
    outer loop
      vertex -2 4 0
      vertex -2 18.5 2
      vertex -2 43.5 0
    endloop
  endfacet
  facet normal -1 0 0
    outer loop
      vertex -2 28.5 7.00001
      vertex -2 43.5 0
      vertex -2 28.5 2
    endloop
  endfacet
  facet normal -1 0 0
    outer loop
      vertex -2 18.5 2
      vertex -2 28.5 2
      vertex -2 43.5 0
    endloop
  endfacet
  facet normal -1 0 0
    outer loop
      vertex -2 43.5 0
      vertex -2 28.5 7.00001
      vertex -2 43.5 7.00001
    endloop
  endfacet
  facet normal -1 0 0
    outer loop
      vertex -2 18.5 2
      vertex -2 4 7.00001
      vertex -2 18.5 7.00001
    endloop
  endfacet
  facet normal -0.99863 -0.0523365 0
    outer loop
      vertex -2 4 0
      vertex -1.96713 3.37283 0
      vertex -2 4 7.00001
    endloop
  endfacet
  facet normal -0.99863 -0.0523365 0
    outer loop
      vertex -2 4 7.00001
      vertex -1.96713 3.37283 0
      vertex -1.96713 3.37283 7.00001
    endloop
  endfacet
  facet normal 0 0 -1
    outer loop
      vertex -2 4 0
      vertex -2 43.5 0
      vertex -1.96713 3.37283 0
    endloop
  endfacet
  facet normal 0 0 -1
    outer loop
      vertex -1.96713 3.37283 0
      vertex -2 43.5 0
      vertex -1.96713 44.1272 0
    endloop
  endfacet
  facet normal 0 0 -1
    outer loop
      vertex -1.96713 3.37283 0
      vertex -1.96713 44.1272 0
      vertex -1.86889 44.7475 0
    endloop
  endfacet
  facet normal 0 0 -1
    outer loop
      vertex -1.96713 3.37283 0
      vertex -1.86889 44.7475 0
      vertex -1.70634 45.3541 0
    endloop
  endfacet
  facet normal 0 0 -1
    outer loop
      vertex -1.96713 3.37283 0
      vertex -1.70634 45.3541 0
      vertex -1.48127 45.9404 0
    endloop
  endfacet
  facet normal 0 0 -1
    outer loop
      vertex -1.96713 3.37283 0
      vertex -1.48127 45.9404 0
      vertex -1.19615 46.5 0
    endloop
  endfacet
  facet normal 0 0 -1
    outer loop
      vertex -1.96713 3.37283 0
      vertex -1.19615 46.5 0
      vertex -0.854102 47.0267 0
    endloop
  endfacet
  facet normal 0 0 -1
    outer loop
      vertex -1.96713 3.37283 0
      vertex -0.854102 47.0267 0
      vertex -0.458869 47.5148 0
    endloop
  endfacet
  facet normal 0 0 -1
    outer loop
      vertex -1.96713 3.37283 0
      vertex -0.458869 47.5148 0
      vertex -0.014784 47.9589 0
    endloop
  endfacet
  facet normal 0 0 -1
    outer loop
      vertex -1.96713 3.37283 0
      vertex -0.014784 47.9589 0
      vertex 0.473288 48.3541 0
    endloop
  endfacet
  facet normal 0 0 -1
    outer loop
      vertex -1.96713 3.37283 0
      vertex 0.473288 48.3541 0
      vertex 1 48.6962 0
    endloop
  endfacet
  facet normal 0 0 -1
    outer loop
      vertex -1.96713 3.37283 0
      vertex 1 48.6962 0
      vertex 1.55958 48.9813 0
    endloop
  endfacet
  facet normal 0 0 -1
    outer loop
      vertex -1.96713 3.37283 0
      vertex 1.55958 48.9813 0
      vertex 2.1459 49.2063 0
    endloop
  endfacet
  facet normal 0 0 -1
    outer loop
      vertex -1.96713 3.37283 0
      vertex 2.1459 49.2063 0
      vertex 2.75253 49.3689 0
    endloop
  endfacet
  facet normal 0 0 -1
    outer loop
      vertex -1.96713 3.37283 0
      vertex 2.75253 49.3689 0
      vertex 3.37283 49.4671 0
    endloop
  endfacet
  facet normal 0 0 -1
    outer loop
      vertex -1.96713 3.37283 0
      vertex 3.37283 49.4671 0
      vertex 4 49.5 0
    endloop
  endfacet
  facet normal 0 0 -1
    outer loop
      vertex -1.96713 3.37283 0
      vertex 4 49.5 0
      vertex 35 49.5 0
    endloop
  endfacet
  facet normal 0 0 -1
    outer loop
      vertex -1.96713 3.37283 0
      vertex 35 49.5 0
      vertex 35.6272 49.4671 0
    endloop
  endfacet
  facet normal 0 0 -1
    outer loop
      vertex -1.96713 3.37283 0
      vertex 35.6272 49.4671 0
      vertex 36.2475 49.3689 0
    endloop
  endfacet
  facet normal 0 0 -1
    outer loop
      vertex -1.96713 3.37283 0
      vertex 36.2475 49.3689 0
      vertex 36.8541 49.2063 0
    endloop
  endfacet
  facet normal 0 0 -1
    outer loop
      vertex -1.96713 3.37283 0
      vertex 36.8541 49.2063 0
      vertex 37.4404 48.9813 0
    endloop
  endfacet
  facet normal 0 0 -1
    outer loop
      vertex -1.96713 3.37283 0
      vertex 37.4404 48.9813 0
      vertex 38 48.6962 0
    endloop
  endfacet
  facet normal 0 0 -1
    outer loop
      vertex -1.96713 3.37283 0
      vertex 38 48.6962 0
      vertex 38.5267 48.3541 0
    endloop
  endfacet
  facet normal 0 0 -1
    outer loop
      vertex -1.96713 3.37283 0
      vertex 38.5267 48.3541 0
      vertex 39.0148 47.9589 0
    endloop
  endfacet
  facet normal 0 0 -1
    outer loop
      vertex -1.96713 3.37283 0
      vertex 39.0148 47.9589 0
      vertex 39.4589 47.5148 0
    endloop
  endfacet
  facet normal 0 0 -1
    outer loop
      vertex -1.96713 3.37283 0
      vertex 39.4589 47.5148 0
      vertex 39.8541 47.0267 0
    endloop
  endfacet
  facet normal 0 0 -1
    outer loop
      vertex -1.96713 3.37283 0
      vertex 39.8541 47.0267 0
      vertex 40.1962 46.5 0
    endloop
  endfacet
  facet normal 0 0 -1
    outer loop
      vertex -1.96713 3.37283 0
      vertex 40.1962 46.5 0
      vertex 40.4813 45.9404 0
    endloop
  endfacet
  facet normal 0 0 -1
    outer loop
      vertex -1.96713 3.37283 0
      vertex 40.4813 45.9404 0
      vertex 40.7063 45.3541 0
    endloop
  endfacet
  facet normal 0 0 -1
    outer loop
      vertex -1.96713 3.37283 0
      vertex 40.7063 45.3541 0
      vertex 40.8689 44.7475 0
    endloop
  endfacet
  facet normal 0 0 -1
    outer loop
      vertex -1.96713 3.37283 0
      vertex 40.8689 44.7475 0
      vertex 40.9671 44.1272 0
    endloop
  endfacet
  facet normal 0 0 -1
    outer loop
      vertex -1.96713 3.37283 0
      vertex 40.9671 44.1272 0
      vertex 41 43.5 0
    endloop
  endfacet
  facet normal 0 0 -1
    outer loop
      vertex -1.96713 3.37283 0
      vertex 41 43.5 0
      vertex 41 4 0
    endloop
  endfacet
  facet normal 0 0 -1
    outer loop
      vertex -1.96713 3.37283 0
      vertex 41 4 0
      vertex 40.9671 3.37283 0
    endloop
  endfacet
  facet normal 0 0 -1
    outer loop
      vertex -1.96713 3.37283 0
      vertex 40.9671 3.37283 0
      vertex 40.8689 2.75253 0
    endloop
  endfacet
  facet normal 0 0 -1
    outer loop
      vertex -1.96713 3.37283 0
      vertex 40.8689 2.75253 0
      vertex 40.7063 2.1459 0
    endloop
  endfacet
  facet normal 0 0 -1
    outer loop
      vertex -1.96713 3.37283 0
      vertex 40.7063 2.1459 0
      vertex 40.4813 1.55958 0
    endloop
  endfacet
  facet normal 0 0 -1
    outer loop
      vertex -1.96713 3.37283 0
      vertex 40.4813 1.55958 0
      vertex 40.1962 1 0
    endloop
  endfacet
  facet normal 0 0 -1
    outer loop
      vertex -1.96713 3.37283 0
      vertex 40.1962 1 0
      vertex 39.8541 0.473288 0
    endloop
  endfacet
  facet normal 0 0 -1
    outer loop
      vertex -1.96713 3.37283 0
      vertex 39.8541 0.473288 0
      vertex 39.4589 -0.014784 0
    endloop
  endfacet
  facet normal 0 0 -1
    outer loop
      vertex -1.96713 3.37283 0
      vertex 39.4589 -0.014784 0
      vertex 39.0148 -0.458869 0
    endloop
  endfacet
  facet normal 0 0 -1
    outer loop
      vertex -1.96713 3.37283 0
      vertex 39.0148 -0.458869 0
      vertex 38.5267 -0.854102 0
    endloop
  endfacet
  facet normal 0 0 -1
    outer loop
      vertex -1.96713 3.37283 0
      vertex 38.5267 -0.854102 0
      vertex 38 -1.19615 0
    endloop
  endfacet
  facet normal 0 0 -1
    outer loop
      vertex -1.96713 3.37283 0
      vertex 38 -1.19615 0
      vertex 37.4404 -1.48127 0
    endloop
  endfacet
  facet normal 0 0 -1
    outer loop
      vertex -1.96713 3.37283 0
      vertex 37.4404 -1.48127 0
      vertex 36.8541 -1.70634 0
    endloop
  endfacet
  facet normal 0 0 -1
    outer loop
      vertex -1.96713 3.37283 0
      vertex 36.8541 -1.70634 0
      vertex 36.2475 -1.86889 0
    endloop
  endfacet
  facet normal 0 0 -1
    outer loop
      vertex -1.96713 3.37283 0
      vertex 36.2475 -1.86889 0
      vertex 35.6272 -1.96713 0
    endloop
  endfacet
  facet normal 0 0 -1
    outer loop
      vertex -1.96713 3.37283 0
      vertex 35.6272 -1.96713 0
      vertex 35 -2 0
    endloop
  endfacet
  facet normal 0 0 -1
    outer loop
      vertex -1.96713 3.37283 0
      vertex 35 -2 0
      vertex 4 -2 0
    endloop
  endfacet
  facet normal 0 0 -1
    outer loop
      vertex -1.96713 3.37283 0
      vertex 4 -2 0
      vertex 3.37283 -1.96713 0
    endloop
  endfacet
  facet normal 0 0 -1
    outer loop
      vertex -1.96713 3.37283 0
      vertex 3.37283 -1.96713 0
      vertex 2.75253 -1.86889 0
    endloop
  endfacet
  facet normal 0 0 -1
    outer loop
      vertex -1.96713 3.37283 0
      vertex 2.75253 -1.86889 0
      vertex 2.1459 -1.70634 0
    endloop
  endfacet
  facet normal 0 0 -1
    outer loop
      vertex -1.96713 3.37283 0
      vertex 2.1459 -1.70634 0
      vertex 1.55958 -1.48127 0
    endloop
  endfacet
  facet normal 0 0 -1
    outer loop
      vertex -1.96713 3.37283 0
      vertex 1.55958 -1.48127 0
      vertex 1 -1.19615 0
    endloop
  endfacet
  facet normal 0 0 -1
    outer loop
      vertex -1.96713 3.37283 0
      vertex 1 -1.19615 0
      vertex 0.473288 -0.854102 0
    endloop
  endfacet
  facet normal 0 0 -1
    outer loop
      vertex -1.96713 3.37283 0
      vertex 0.473288 -0.854102 0
      vertex -0.014784 -0.458869 0
    endloop
  endfacet
  facet normal 0 0 -1
    outer loop
      vertex -1.96713 3.37283 0
      vertex -0.014784 -0.458869 0
      vertex -0.458869 -0.014784 0
    endloop
  endfacet
  facet normal 0 0 -1
    outer loop
      vertex -1.96713 3.37283 0
      vertex -0.458869 -0.014784 0
      vertex -0.854102 0.473288 0
    endloop
  endfacet
  facet normal 0 0 -1
    outer loop
      vertex -1.96713 3.37283 0
      vertex -0.854102 0.473288 0
      vertex -1.19615 1 0
    endloop
  endfacet
  facet normal 0 0 -1
    outer loop
      vertex -1.96713 3.37283 0
      vertex -1.19615 1 0
      vertex -1.48127 1.55958 0
    endloop
  endfacet
  facet normal 0 0 -1
    outer loop
      vertex -1.96713 3.37283 0
      vertex -1.48127 1.55958 0
      vertex -1.70634 2.1459 0
    endloop
  endfacet
  facet normal 0 0 -1
    outer loop
      vertex -1.96713 3.37283 0
      vertex -1.70634 2.1459 0
      vertex -1.86889 2.75253 0
    endloop
  endfacet
  facet normal -0.99863 0.0523365 0
    outer loop
      vertex -2 43.5 0
      vertex -2 43.5 7.00001
      vertex -1.96713 44.1272 0
    endloop
  endfacet
  facet normal -0.99863 0.0523365 0
    outer loop
      vertex -1.96713 44.1272 0
      vertex -2 43.5 7.00001
      vertex -1.96713 44.1272 7.00001
    endloop
  endfacet
  facet normal 0 0 1
    outer loop
      vertex -2 18.5 7.00001
      vertex -2 4 7.00001
      vertex -1.96713 3.37283 7.00001
    endloop
  endfacet
  facet normal 0 0 1
    outer loop
      vertex -1.70634 2.1459 7.00001
      vertex -2 18.5 7.00001
      vertex -1.86889 2.75253 7.00001
    endloop
  endfacet
  facet normal 0 0 1
    outer loop
      vertex -1.86889 2.75253 7.00001
      vertex -2 18.5 7.00001
      vertex -1.96713 3.37283 7.00001
    endloop
  endfacet
  facet normal 0 0 1
    outer loop
      vertex -1.48127 1.55958 7.00001
      vertex -2 18.5 7.00001
      vertex -1.70634 2.1459 7.00001
    endloop
  endfacet
  facet normal 0 0 1
    outer loop
      vertex -1.19615 1 7.00001
      vertex -2 18.5 7.00001
      vertex -1.48127 1.55958 7.00001
    endloop
  endfacet
  facet normal 0 0 1
    outer loop
      vertex -0.854102 0.473288 7.00001
      vertex -2 18.5 7.00001
      vertex -1.19615 1 7.00001
    endloop
  endfacet
  facet normal 0 0 1
    outer loop
      vertex -0.458869 -0.014784 7.00001
      vertex -2 18.5 7.00001
      vertex -0.854102 0.473288 7.00001
    endloop
  endfacet
  facet normal 0 0 1
    outer loop
      vertex -0.014784 -0.458869 7.00001
      vertex -2 18.5 7.00001
      vertex -0.458869 -0.014784 7.00001
    endloop
  endfacet
  facet normal 0 0 1
    outer loop
      vertex 0.473288 -0.854102 7.00001
      vertex -2 18.5 7.00001
      vertex -0.014784 -0.458869 7.00001
    endloop
  endfacet
  facet normal 0 0 1
    outer loop
      vertex -0.078088 3.48189 7.00001
      vertex -2 18.5 7.00001
      vertex 0.473288 -0.854102 7.00001
    endloop
  endfacet
  facet normal 0 0 1
    outer loop
      vertex -0.078088 3.48189 7.00001
      vertex -0.1 3.9 7.00001
      vertex -2 18.5 7.00001
    endloop
  endfacet
  facet normal 0 0 1
    outer loop
      vertex 0.663932 1.54886 7.00001
      vertex 0.435898 1.9 7.00001
      vertex 1 -1.19615 7.00001
    endloop
  endfacet
  facet normal 0 0 1
    outer loop
      vertex 1.22348 0.927421 7.00001
      vertex 0.927421 1.22348 7.00001
      vertex 1.55958 -1.48127 7.00001
    endloop
  endfacet
  facet normal 0 0 1
    outer loop
      vertex 1.9 0.435898 7.00001
      vertex 1.54886 0.663932 7.00001
      vertex 2.1459 -1.70634 7.00001
    endloop
  endfacet
  facet normal 0 0 1
    outer loop
      vertex 2.27305 0.245818 7.00001
      vertex 1.9 0.435898 7.00001
      vertex 2.75253 -1.86889 7.00001
    endloop
  endfacet
  facet normal 0 0 1
    outer loop
      vertex 3.06835 -0.01259 7.00001
      vertex 2.66393 0.095774 7.00001
      vertex 3.37283 -1.96713 7.00001
    endloop
  endfacet
  facet normal 0 0 1
    outer loop
      vertex 3.48189 -0.078088 7.00001
      vertex 3.06835 -0.01259 7.00001
      vertex 4 -2 7.00001
    endloop
  endfacet
  facet normal 0 0 1
    outer loop
      vertex 35.1 -0.1 7.00001
      vertex 36.8541 -1.70634 7.00001
      vertex 37.4404 -1.48127 7.00001
    endloop
  endfacet
  facet normal 0 0 1
    outer loop
      vertex 35.9316 -0.01259 7.00001
      vertex 35.5181 -0.078088 7.00001
      vertex 38 -1.19615 7.00001
    endloop
  endfacet
  facet normal 0 0 1
    outer loop
      vertex 36.7269 0.245818 7.00001
      vertex 36.3361 0.095774 7.00001
      vertex 38.5267 -0.854102 7.00001
    endloop
  endfacet
  facet normal 0 0 1
    outer loop
      vertex 37.1 0.435898 7.00001
      vertex 36.7269 0.245818 7.00001
      vertex 39.0148 -0.458869 7.00001
    endloop
  endfacet
  facet normal 0 0 1
    outer loop
      vertex 37.7765 0.927421 7.00001
      vertex 37.4511 0.663932 7.00001
      vertex 39.4589 -0.014784 7.00001
    endloop
  endfacet
  facet normal 0 0 1
    outer loop
      vertex 38.3361 1.54886 7.00001
      vertex 38.0726 1.22348 7.00001
      vertex 39.8541 0.473288 7.00001
    endloop
  endfacet
  facet normal 0 0 1
    outer loop
      vertex 38.5641 1.9 7.00001
      vertex 38.3361 1.54886 7.00001
      vertex 40.1962 1 7.00001
    endloop
  endfacet
  facet normal 0 0 1
    outer loop
      vertex 38.7542 2.27305 7.00001
      vertex 38.5641 1.9 7.00001
      vertex 40.4813 1.55958 7.00001
    endloop
  endfacet
  facet normal 0 0 1
    outer loop
      vertex 39.0126 3.06835 7.00001
      vertex 38.9042 2.66393 7.00001
      vertex 40.7063 2.1459 7.00001
    endloop
  endfacet
  facet normal 0 0 1
    outer loop
      vertex 39.0781 3.48189 7.00001
      vertex 39.0126 3.06835 7.00001
      vertex 40.8689 2.75253 7.00001
    endloop
  endfacet
  facet normal 0 0 1
    outer loop
      vertex 35.1 -0.1 7.00001
      vertex 36.2475 -1.86889 7.00001
      vertex 36.8541 -1.70634 7.00001
    endloop
  endfacet
  facet normal 0 0 1
    outer loop
      vertex 35.1 -0.1 7.00001
      vertex 3.9 -0.1 7.00001
      vertex 35 -2 7.00001
    endloop
  endfacet
  facet normal 0 0 1
    outer loop
      vertex 39.0781 44.0181 7.00001
      vertex 39.1 43.6 7.00001
      vertex 40.8689 44.7475 7.00001
    endloop
  endfacet
  facet normal 0 0 1
    outer loop
      vertex 39.0126 44.4316 7.00001
      vertex 39.0781 44.0181 7.00001
      vertex 40.7063 45.3541 7.00001
    endloop
  endfacet
  facet normal 0 0 1
    outer loop
      vertex 38.7542 45.2269 7.00001
      vertex 38.9042 44.8361 7.00001
      vertex 40.4813 45.9404 7.00001
    endloop
  endfacet
  facet normal 0 0 1
    outer loop
      vertex 38.5641 45.6 7.00001
      vertex 38.7542 45.2269 7.00001
      vertex 40.1962 46.5 7.00001
    endloop
  endfacet
  facet normal 0 0 1
    outer loop
      vertex 38.0726 46.2765 7.00001
      vertex 38.3361 45.9511 7.00001
      vertex 39.8541 47.0267 7.00001
    endloop
  endfacet
  facet normal 0 0 1
    outer loop
      vertex 37.7765 46.5726 7.00001
      vertex 38.0726 46.2765 7.00001
      vertex 39.4589 47.5148 7.00001
    endloop
  endfacet
  facet normal 0 0 1
    outer loop
      vertex 37.4511 46.8361 7.00001
      vertex 37.7765 46.5726 7.00001
      vertex 39.0148 47.9589 7.00001
    endloop
  endfacet
  facet normal 0 0 1
    outer loop
      vertex 36.7269 47.2542 7.00001
      vertex 37.1 47.0641 7.00001
      vertex 38.5267 48.3541 7.00001
    endloop
  endfacet
  facet normal 0 0 1
    outer loop
      vertex 35.9316 47.5126 7.00001
      vertex 36.3361 47.4042 7.00001
      vertex 38 48.6962 7.00001
    endloop
  endfacet
  facet normal 0 0 1
    outer loop
      vertex 35.5181 47.5781 7.00001
      vertex 35.9316 47.5126 7.00001
      vertex 37.4404 48.9813 7.00001
    endloop
  endfacet
  facet normal 0 0 1
    outer loop
      vertex 39.1 43.6 7.00001
      vertex 41 43.5 7.00001
      vertex 40.9671 44.1272 7.00001
    endloop
  endfacet
  facet normal 0 0 1
    outer loop
      vertex 39.1 43.6 7.00001
      vertex 41 4 7.00001
      vertex 41 43.5 7.00001
    endloop
  endfacet
  facet normal 0 0 1
    outer loop
      vertex 3.9 47.6 7.00001
      vertex 35.6272 49.4671 7.00001
      vertex 35 49.5 7.00001
    endloop
  endfacet
  facet normal 0 0 1
    outer loop
      vertex 1.54886 46.8361 7.00001
      vertex 1.9 47.0641 7.00001
      vertex 2.1459 49.2063 7.00001
    endloop
  endfacet
  facet normal 0 0 1
    outer loop
      vertex -2 43.5 7.00001
      vertex -2 28.5 7.00001
      vertex -1.96713 44.1272 7.00001
    endloop
  endfacet
  facet normal 0 0 1
    outer loop
      vertex 3.9 47.6 7.00001
      vertex 36.2475 49.3689 7.00001
      vertex 35.6272 49.4671 7.00001
    endloop
  endfacet
  facet normal 0 0 1
    outer loop
      vertex 2.66393 47.4042 7.00001
      vertex 3.06835 47.5126 7.00001
      vertex 3.37283 49.4671 7.00001
    endloop
  endfacet
  facet normal 0 0 1
    outer loop
      vertex -0.014784 47.9589 7.00001
      vertex -0.078088 44.0181 7.00001
      vertex 0.473288 48.3541 7.00001
    endloop
  endfacet
  facet normal 0 0 1
    outer loop
      vertex -0.014784 47.9589 7.00001
      vertex -0.1 43.6 7.00001
      vertex -0.078088 44.0181 7.00001
    endloop
  endfacet
  facet normal 0 0 1
    outer loop
      vertex -0.078088 44.0181 7.00001
      vertex -0.01259 44.4316 7.00001
      vertex 0.473288 48.3541 7.00001
    endloop
  endfacet
  facet normal 0 0 1
    outer loop
      vertex 0.473288 48.3541 7.00001
      vertex 0.245818 45.2269 7.00001
      vertex 1 48.6962 7.00001
    endloop
  endfacet
  facet normal 0 0 1
    outer loop
      vertex 0.245818 45.2269 7.00001
      vertex 0.435898 45.6 7.00001
      vertex 1 48.6962 7.00001
    endloop
  endfacet
  facet normal 0 0 1
    outer loop
      vertex 0.435898 45.6 7.00001
      vertex 0.663932 45.9511 7.00001
      vertex 1 48.6962 7.00001
    endloop
  endfacet
  facet normal 0 0 1
    outer loop
      vertex -0.1 28.5 7.00001
      vertex -0.1 43.6 7.00001
      vertex -2 28.5 7.00001
    endloop
  endfacet
  facet normal 0 0 1
    outer loop
      vertex 1 48.6962 7.00001
      vertex 0.927421 46.2765 7.00001
      vertex 1.55958 48.9813 7.00001
    endloop
  endfacet
  facet normal 0 0 1
    outer loop
      vertex 0.927421 46.2765 7.00001
      vertex 1.22348 46.5726 7.00001
      vertex 1.55958 48.9813 7.00001
    endloop
  endfacet
  facet normal 0 0 1
    outer loop
      vertex 1.55958 48.9813 7.00001
      vertex 1.54886 46.8361 7.00001
      vertex 2.1459 49.2063 7.00001
    endloop
  endfacet
  facet normal 0 0 1
    outer loop
      vertex 2.1459 49.2063 7.00001
      vertex 1.9 47.0641 7.00001
      vertex 2.75253 49.3689 7.00001
    endloop
  endfacet
  facet normal 0 0 1
    outer loop
      vertex 1.9 47.0641 7.00001
      vertex 2.27305 47.2542 7.00001
      vertex 2.75253 49.3689 7.00001
    endloop
  endfacet
  facet normal 0 0 1
    outer loop
      vertex 2.75253 49.3689 7.00001
      vertex 2.66393 47.4042 7.00001
      vertex 3.37283 49.4671 7.00001
    endloop
  endfacet
  facet normal 0 0 1
    outer loop
      vertex 3.37283 49.4671 7.00001
      vertex 3.06835 47.5126 7.00001
      vertex 4 49.5 7.00001
    endloop
  endfacet
  facet normal 0 0 1
    outer loop
      vertex 3.06835 47.5126 7.00001
      vertex 3.48189 47.5781 7.00001
      vertex 4 49.5 7.00001
    endloop
  endfacet
  facet normal 0 0 1
    outer loop
      vertex 4 49.5 7.00001
      vertex 3.9 47.6 7.00001
      vertex 35 49.5 7.00001
    endloop
  endfacet
  facet normal 0 0 1
    outer loop
      vertex 36.8541 49.2063 7.00001
      vertex 35.1 47.6 7.00001
      vertex 37.4404 48.9813 7.00001
    endloop
  endfacet
  facet normal 0 0 1
    outer loop
      vertex 35.1 47.6 7.00001
      vertex 35.5181 47.5781 7.00001
      vertex 37.4404 48.9813 7.00001
    endloop
  endfacet
  facet normal 0 0 1
    outer loop
      vertex 37.4404 48.9813 7.00001
      vertex 35.9316 47.5126 7.00001
      vertex 38 48.6962 7.00001
    endloop
  endfacet
  facet normal 0 0 1
    outer loop
      vertex 38 48.6962 7.00001
      vertex 36.3361 47.4042 7.00001
      vertex 38.5267 48.3541 7.00001
    endloop
  endfacet
  facet normal 0 0 1
    outer loop
      vertex 36.3361 47.4042 7.00001
      vertex 36.7269 47.2542 7.00001
      vertex 38.5267 48.3541 7.00001
    endloop
  endfacet
  facet normal 0 0 1
    outer loop
      vertex 38.5267 48.3541 7.00001
      vertex 37.1 47.0641 7.00001
      vertex 39.0148 47.9589 7.00001
    endloop
  endfacet
  facet normal 0 0 1
    outer loop
      vertex 37.1 47.0641 7.00001
      vertex 37.4511 46.8361 7.00001
      vertex 39.0148 47.9589 7.00001
    endloop
  endfacet
  facet normal 0 0 1
    outer loop
      vertex 39.0148 47.9589 7.00001
      vertex 37.7765 46.5726 7.00001
      vertex 39.4589 47.5148 7.00001
    endloop
  endfacet
  facet normal 0 0 1
    outer loop
      vertex 39.4589 47.5148 7.00001
      vertex 38.0726 46.2765 7.00001
      vertex 39.8541 47.0267 7.00001
    endloop
  endfacet
  facet normal 0 0 1
    outer loop
      vertex 39.8541 47.0267 7.00001
      vertex 38.3361 45.9511 7.00001
      vertex 40.1962 46.5 7.00001
    endloop
  endfacet
  facet normal 0 0 1
    outer loop
      vertex 38.3361 45.9511 7.00001
      vertex 38.5641 45.6 7.00001
      vertex 40.1962 46.5 7.00001
    endloop
  endfacet
  facet normal 0 0 1
    outer loop
      vertex 40.1962 46.5 7.00001
      vertex 38.7542 45.2269 7.00001
      vertex 40.4813 45.9404 7.00001
    endloop
  endfacet
  facet normal 0 0 1
    outer loop
      vertex 40.4813 45.9404 7.00001
      vertex 38.9042 44.8361 7.00001
      vertex 40.7063 45.3541 7.00001
    endloop
  endfacet
  facet normal 0 0 1
    outer loop
      vertex 38.9042 44.8361 7.00001
      vertex 39.0126 44.4316 7.00001
      vertex 40.7063 45.3541 7.00001
    endloop
  endfacet
  facet normal 0 0 1
    outer loop
      vertex 40.7063 45.3541 7.00001
      vertex 39.0781 44.0181 7.00001
      vertex 40.8689 44.7475 7.00001
    endloop
  endfacet
  facet normal 0 0 1
    outer loop
      vertex 40.8689 44.7475 7.00001
      vertex 39.1 43.6 7.00001
      vertex 40.9671 44.1272 7.00001
    endloop
  endfacet
  facet normal 0 0 1
    outer loop
      vertex 40.9671 3.37283 7.00001
      vertex 39.1 3.9 7.00001
      vertex 40.8689 2.75253 7.00001
    endloop
  endfacet
  facet normal 0 0 1
    outer loop
      vertex 39.1 3.9 7.00001
      vertex 39.0781 3.48189 7.00001
      vertex 40.8689 2.75253 7.00001
    endloop
  endfacet
  facet normal 0 0 1
    outer loop
      vertex 40.8689 2.75253 7.00001
      vertex 39.0126 3.06835 7.00001
      vertex 40.7063 2.1459 7.00001
    endloop
  endfacet
  facet normal 0 0 1
    outer loop
      vertex 40.7063 2.1459 7.00001
      vertex 38.9042 2.66393 7.00001
      vertex 40.4813 1.55958 7.00001
    endloop
  endfacet
  facet normal 0 0 1
    outer loop
      vertex 38.9042 2.66393 7.00001
      vertex 38.7542 2.27305 7.00001
      vertex 40.4813 1.55958 7.00001
    endloop
  endfacet
  facet normal 0 0 1
    outer loop
      vertex 40.4813 1.55958 7.00001
      vertex 38.5641 1.9 7.00001
      vertex 40.1962 1 7.00001
    endloop
  endfacet
  facet normal 0 0 1
    outer loop
      vertex 40.1962 1 7.00001
      vertex 38.3361 1.54886 7.00001
      vertex 39.8541 0.473288 7.00001
    endloop
  endfacet
  facet normal 0 0 1
    outer loop
      vertex 39.8541 0.473288 7.00001
      vertex 38.0726 1.22348 7.00001
      vertex 39.4589 -0.014784 7.00001
    endloop
  endfacet
  facet normal 0 0 1
    outer loop
      vertex 38.0726 1.22348 7.00001
      vertex 37.7765 0.927421 7.00001
      vertex 39.4589 -0.014784 7.00001
    endloop
  endfacet
  facet normal 0 0 1
    outer loop
      vertex 39.4589 -0.014784 7.00001
      vertex 37.4511 0.663932 7.00001
      vertex 39.0148 -0.458869 7.00001
    endloop
  endfacet
  facet normal 0 0 1
    outer loop
      vertex 37.4511 0.663932 7.00001
      vertex 37.1 0.435898 7.00001
      vertex 39.0148 -0.458869 7.00001
    endloop
  endfacet
  facet normal 0 0 1
    outer loop
      vertex 39.0148 -0.458869 7.00001
      vertex 36.7269 0.245818 7.00001
      vertex 38.5267 -0.854102 7.00001
    endloop
  endfacet
  facet normal 0 0 1
    outer loop
      vertex 38.5267 -0.854102 7.00001
      vertex 36.3361 0.095774 7.00001
      vertex 38 -1.19615 7.00001
    endloop
  endfacet
  facet normal 0 0 1
    outer loop
      vertex 36.3361 0.095774 7.00001
      vertex 35.9316 -0.01259 7.00001
      vertex 38 -1.19615 7.00001
    endloop
  endfacet
  facet normal 0 0 1
    outer loop
      vertex 38 -1.19615 7.00001
      vertex 35.5181 -0.078088 7.00001
      vertex 37.4404 -1.48127 7.00001
    endloop
  endfacet
  facet normal 0 0 1
    outer loop
      vertex 35.5181 -0.078088 7.00001
      vertex 35.1 -0.1 7.00001
      vertex 37.4404 -1.48127 7.00001
    endloop
  endfacet
  facet normal 0 0 1
    outer loop
      vertex 35 -2 7.00001
      vertex 3.9 -0.1 7.00001
      vertex 4 -2 7.00001
    endloop
  endfacet
  facet normal 0 0 1
    outer loop
      vertex 3.9 -0.1 7.00001
      vertex 3.48189 -0.078088 7.00001
      vertex 4 -2 7.00001
    endloop
  endfacet
  facet normal 0 0 1
    outer loop
      vertex 4 -2 7.00001
      vertex 3.06835 -0.01259 7.00001
      vertex 3.37283 -1.96713 7.00001
    endloop
  endfacet
  facet normal 0 0 1
    outer loop
      vertex 3.37283 -1.96713 7.00001
      vertex 2.66393 0.095774 7.00001
      vertex 2.75253 -1.86889 7.00001
    endloop
  endfacet
  facet normal 0 0 1
    outer loop
      vertex 2.66393 0.095774 7.00001
      vertex 2.27305 0.245818 7.00001
      vertex 2.75253 -1.86889 7.00001
    endloop
  endfacet
  facet normal 0 0 1
    outer loop
      vertex 2.75253 -1.86889 7.00001
      vertex 1.9 0.435898 7.00001
      vertex 2.1459 -1.70634 7.00001
    endloop
  endfacet
  facet normal 0 0 1
    outer loop
      vertex 2.1459 -1.70634 7.00001
      vertex 1.54886 0.663932 7.00001
      vertex 1.55958 -1.48127 7.00001
    endloop
  endfacet
  facet normal 0 0 1
    outer loop
      vertex 1.54886 0.663932 7.00001
      vertex 1.22348 0.927421 7.00001
      vertex 1.55958 -1.48127 7.00001
    endloop
  endfacet
  facet normal 0 0 1
    outer loop
      vertex 1.55958 -1.48127 7.00001
      vertex 0.927421 1.22348 7.00001
      vertex 1 -1.19615 7.00001
    endloop
  endfacet
  facet normal 0 0 1
    outer loop
      vertex 0.927421 1.22348 7.00001
      vertex 0.663932 1.54886 7.00001
      vertex 1 -1.19615 7.00001
    endloop
  endfacet
  facet normal 0 0 1
    outer loop
      vertex 1 -1.19615 7.00001
      vertex 0.435898 1.9 7.00001
      vertex 0.473288 -0.854102 7.00001
    endloop
  endfacet
  facet normal 0 0 1
    outer loop
      vertex 0.435898 1.9 7.00001
      vertex 0.245818 2.27305 7.00001
      vertex 0.473288 -0.854102 7.00001
    endloop
  endfacet
  facet normal 0 0 1
    outer loop
      vertex 0.245818 2.27305 7.00001
      vertex 0.095774 2.66393 7.00001
      vertex 0.473288 -0.854102 7.00001
    endloop
  endfacet
  facet normal 0 0 1
    outer loop
      vertex 0.095774 2.66393 7.00001
      vertex -0.01259 3.06835 7.00001
      vertex 0.473288 -0.854102 7.00001
    endloop
  endfacet
  facet normal 0 0 1
    outer loop
      vertex -0.01259 3.06835 7.00001
      vertex -0.078088 3.48189 7.00001
      vertex 0.473288 -0.854102 7.00001
    endloop
  endfacet
  facet normal 0 0 1
    outer loop
      vertex 35.1 -0.1 7.00001
      vertex 35.6272 -1.96713 7.00001
      vertex 36.2475 -1.86889 7.00001
    endloop
  endfacet
  facet normal 0 0 1
    outer loop
      vertex 35.1 -0.1 7.00001
      vertex 35 -2 7.00001
      vertex 35.6272 -1.96713 7.00001
    endloop
  endfacet
  facet normal 0 0 1
    outer loop
      vertex -2 28.5 7.00001
      vertex -1.86889 44.7475 7.00001
      vertex -1.96713 44.1272 7.00001
    endloop
  endfacet
  facet normal 0 0 1
    outer loop
      vertex -2 28.5 7.00001
      vertex -1.70634 45.3541 7.00001
      vertex -1.86889 44.7475 7.00001
    endloop
  endfacet
  facet normal 0 0 1
    outer loop
      vertex -2 28.5 7.00001
      vertex -1.48127 45.9404 7.00001
      vertex -1.70634 45.3541 7.00001
    endloop
  endfacet
  facet normal 0 0 1
    outer loop
      vertex -2 28.5 7.00001
      vertex -1.19615 46.5 7.00001
      vertex -1.48127 45.9404 7.00001
    endloop
  endfacet
  facet normal 0 0 1
    outer loop
      vertex -2 28.5 7.00001
      vertex -0.854102 47.0267 7.00001
      vertex -1.19615 46.5 7.00001
    endloop
  endfacet
  facet normal 0 0 1
    outer loop
      vertex -2 28.5 7.00001
      vertex -0.458869 47.5148 7.00001
      vertex -0.854102 47.0267 7.00001
    endloop
  endfacet
  facet normal 0 0 1
    outer loop
      vertex -2 28.5 7.00001
      vertex -0.014784 47.9589 7.00001
      vertex -0.458869 47.5148 7.00001
    endloop
  endfacet
  facet normal 0 0 1
    outer loop
      vertex -2 28.5 7.00001
      vertex -0.1 43.6 7.00001
      vertex -0.014784 47.9589 7.00001
    endloop
  endfacet
  facet normal 0 0 1
    outer loop
      vertex 0.095774 44.8361 7.00001
      vertex 0.245818 45.2269 7.00001
      vertex 0.473288 48.3541 7.00001
    endloop
  endfacet
  facet normal 0 0 1
    outer loop
      vertex -0.01259 44.4316 7.00001
      vertex 0.095774 44.8361 7.00001
      vertex 0.473288 48.3541 7.00001
    endloop
  endfacet
  facet normal 0 0 1
    outer loop
      vertex 3.48189 47.5781 7.00001
      vertex 3.9 47.6 7.00001
      vertex 4 49.5 7.00001
    endloop
  endfacet
  facet normal 0 0 1
    outer loop
      vertex 3.9 47.6 7.00001
      vertex 36.8541 49.2063 7.00001
      vertex 36.2475 49.3689 7.00001
    endloop
  endfacet
  facet normal 0 0 1
    outer loop
      vertex 0.663932 45.9511 7.00001
      vertex 0.927421 46.2765 7.00001
      vertex 1 48.6962 7.00001
    endloop
  endfacet
  facet normal 0 0 1
    outer loop
      vertex 3.9 47.6 7.00001
      vertex 35.1 47.6 7.00001
      vertex 36.8541 49.2063 7.00001
    endloop
  endfacet
  facet normal 0 0 1
    outer loop
      vertex 39.1 43.6 7.00001
      vertex 40.9671 3.37283 7.00001
      vertex 41 4 7.00001
    endloop
  endfacet
  facet normal 0 0 1
    outer loop
      vertex 1.22348 46.5726 7.00001
      vertex 1.54886 46.8361 7.00001
      vertex 1.55958 48.9813 7.00001
    endloop
  endfacet
  facet normal 0 0 1
    outer loop
      vertex 39.1 43.6 7.00001
      vertex 39.1 3.9 7.00001
      vertex 40.9671 3.37283 7.00001
    endloop
  endfacet
  facet normal 0 0 1
    outer loop
      vertex 2.27305 47.2542 7.00001
      vertex 2.66393 47.4042 7.00001
      vertex 2.75253 49.3689 7.00001
    endloop
  endfacet
  facet normal 0 0 1
    outer loop
      vertex -0.1 3.9 7.00001
      vertex -0.1 18.5 7.00001
      vertex -2 18.5 7.00001
    endloop
  endfacet
  facet normal 0 -1 0
    outer loop
      vertex -0.1 28.5 2
      vertex -0.1 28.5 7.00001
      vertex -2 28.5 7.00001
    endloop
  endfacet
  facet normal 0 -1 0
    outer loop
      vertex -2 28.5 2
      vertex -0.1 28.5 2
      vertex -2 28.5 7.00001
    endloop
  endfacet
  facet normal 0 0 1
    outer loop
      vertex -0.1 18.5 2
      vertex -0.1 28.5 2
      vertex -2 28.5 2
    endloop
  endfacet
  facet normal 0 0 1
    outer loop
      vertex -2 18.5 2
      vertex -0.1 18.5 2
      vertex -2 28.5 2
    endloop
  endfacet
  facet normal 0 1 0
    outer loop
      vertex -0.1 18.5 7.00001
      vertex -0.1 18.5 2
      vertex -2 18.5 7.00001
    endloop
  endfacet
  facet normal 0 1 0
    outer loop
      vertex -2 18.5 7.00001
      vertex -0.1 18.5 2
      vertex -2 18.5 2
    endloop
  endfacet
  facet normal -0.987689 -0.156433 0
    outer loop
      vertex -1.96713 3.37283 0
      vertex -1.86889 2.75253 0
      vertex -1.96713 3.37283 7.00001
    endloop
  endfacet
  facet normal -0.987689 -0.156433 0
    outer loop
      vertex -1.96713 3.37283 7.00001
      vertex -1.86889 2.75253 0
      vertex -1.86889 2.75253 7.00001
    endloop
  endfacet
  facet normal -0.965926 -0.25882 0
    outer loop
      vertex -1.86889 2.75253 0
      vertex -1.70634 2.1459 0
      vertex -1.86889 2.75253 7.00001
    endloop
  endfacet
  facet normal -0.965926 -0.25882 0
    outer loop
      vertex -1.86889 2.75253 7.00001
      vertex -1.70634 2.1459 0
      vertex -1.70634 2.1459 7.00001
    endloop
  endfacet
  facet normal -0.933581 -0.358367 0
    outer loop
      vertex -1.70634 2.1459 0
      vertex -1.48127 1.55958 0
      vertex -1.70634 2.1459 7.00001
    endloop
  endfacet
  facet normal -0.933581 -0.358367 0
    outer loop
      vertex -1.70634 2.1459 7.00001
      vertex -1.48127 1.55958 0
      vertex -1.48127 1.55958 7.00001
    endloop
  endfacet
  facet normal -0.891006 -0.453991 0
    outer loop
      vertex -1.48127 1.55958 0
      vertex -1.19615 1 0
      vertex -1.48127 1.55958 7.00001
    endloop
  endfacet
  facet normal -0.891006 -0.453991 0
    outer loop
      vertex -1.48127 1.55958 7.00001
      vertex -1.19615 1 0
      vertex -1.19615 1 7.00001
    endloop
  endfacet
  facet normal -0.838671 -0.544638 0
    outer loop
      vertex -1.19615 1 0
      vertex -0.854102 0.473288 0
      vertex -1.19615 1 7.00001
    endloop
  endfacet
  facet normal -0.838671 -0.544638 0
    outer loop
      vertex -1.19615 1 7.00001
      vertex -0.854102 0.473288 0
      vertex -0.854102 0.473288 7.00001
    endloop
  endfacet
  facet normal -0.777146 -0.62932 0
    outer loop
      vertex -0.854102 0.473288 0
      vertex -0.458869 -0.014784 0
      vertex -0.854102 0.473288 7.00001
    endloop
  endfacet
  facet normal -0.777146 -0.62932 0
    outer loop
      vertex -0.854102 0.473288 7.00001
      vertex -0.458869 -0.014784 0
      vertex -0.458869 -0.014784 7.00001
    endloop
  endfacet
  facet normal -0.707107 -0.707107 0
    outer loop
      vertex -0.458869 -0.014784 7.00001
      vertex -0.458869 -0.014784 0
      vertex -0.014784 -0.458869 0
    endloop
  endfacet
  facet normal -0.707107 -0.707107 0
    outer loop
      vertex -0.014784 -0.458869 7.00001
      vertex -0.458869 -0.014784 7.00001
      vertex -0.014784 -0.458869 0
    endloop
  endfacet
  facet normal -0.62932 -0.777146 0
    outer loop
      vertex -0.014784 -0.458869 7.00001
      vertex -0.014784 -0.458869 0
      vertex 0.473288 -0.854102 0
    endloop
  endfacet
  facet normal -0.62932 -0.777146 0
    outer loop
      vertex 0.473288 -0.854102 7.00001
      vertex -0.014784 -0.458869 7.00001
      vertex 0.473288 -0.854102 0
    endloop
  endfacet
  facet normal -0.544638 -0.838671 0
    outer loop
      vertex 0.473288 -0.854102 7.00001
      vertex 0.473288 -0.854102 0
      vertex 1 -1.19615 0
    endloop
  endfacet
  facet normal -0.544638 -0.838671 0
    outer loop
      vertex 1 -1.19615 7.00001
      vertex 0.473288 -0.854102 7.00001
      vertex 1 -1.19615 0
    endloop
  endfacet
  facet normal -0.453991 -0.891006 0
    outer loop
      vertex 1 -1.19615 7.00001
      vertex 1 -1.19615 0
      vertex 1.55958 -1.48127 0
    endloop
  endfacet
  facet normal -0.453991 -0.891006 0
    outer loop
      vertex 1.55958 -1.48127 7.00001
      vertex 1 -1.19615 7.00001
      vertex 1.55958 -1.48127 0
    endloop
  endfacet
  facet normal -0.358367 -0.933581 0
    outer loop
      vertex 1.55958 -1.48127 7.00001
      vertex 1.55958 -1.48127 0
      vertex 2.1459 -1.70634 0
    endloop
  endfacet
  facet normal -0.358367 -0.933581 0
    outer loop
      vertex 2.1459 -1.70634 7.00001
      vertex 1.55958 -1.48127 7.00001
      vertex 2.1459 -1.70634 0
    endloop
  endfacet
  facet normal -0.25882 -0.965926 0
    outer loop
      vertex 2.1459 -1.70634 7.00001
      vertex 2.1459 -1.70634 0
      vertex 2.75253 -1.86889 0
    endloop
  endfacet
  facet normal -0.25882 -0.965926 0
    outer loop
      vertex 2.75253 -1.86889 7.00001
      vertex 2.1459 -1.70634 7.00001
      vertex 2.75253 -1.86889 0
    endloop
  endfacet
  facet normal -0.156433 -0.987689 0
    outer loop
      vertex 2.75253 -1.86889 7.00001
      vertex 2.75253 -1.86889 0
      vertex 3.37283 -1.96713 0
    endloop
  endfacet
  facet normal -0.156433 -0.987689 0
    outer loop
      vertex 3.37283 -1.96713 7.00001
      vertex 2.75253 -1.86889 7.00001
      vertex 3.37283 -1.96713 0
    endloop
  endfacet
  facet normal -0.0523365 -0.99863 0
    outer loop
      vertex 3.37283 -1.96713 7.00001
      vertex 3.37283 -1.96713 0
      vertex 4 -2 0
    endloop
  endfacet
  facet normal -0.0523365 -0.99863 0
    outer loop
      vertex 4 -2 7.00001
      vertex 3.37283 -1.96713 7.00001
      vertex 4 -2 0
    endloop
  endfacet
  facet normal 0 -1 0
    outer loop
      vertex 4 -2 7.00001
      vertex 4 -2 0
      vertex 35 -2 0
    endloop
  endfacet
  facet normal 0 -1 0
    outer loop
      vertex 35 -2 7.00001
      vertex 4 -2 7.00001
      vertex 35 -2 0
    endloop
  endfacet
  facet normal 0.0523365 -0.99863 0
    outer loop
      vertex 35 -2 7.00001
      vertex 35 -2 0
      vertex 35.6272 -1.96713 0
    endloop
  endfacet
  facet normal 0.0523365 -0.99863 0
    outer loop
      vertex 35.6272 -1.96713 7.00001
      vertex 35 -2 7.00001
      vertex 35.6272 -1.96713 0
    endloop
  endfacet
  facet normal 0.156433 -0.987689 0
    outer loop
      vertex 35.6272 -1.96713 7.00001
      vertex 35.6272 -1.96713 0
      vertex 36.2475 -1.86889 0
    endloop
  endfacet
  facet normal 0.156433 -0.987689 0
    outer loop
      vertex 36.2475 -1.86889 7.00001
      vertex 35.6272 -1.96713 7.00001
      vertex 36.2475 -1.86889 0
    endloop
  endfacet
  facet normal 0.25882 -0.965926 0
    outer loop
      vertex 36.2475 -1.86889 7.00001
      vertex 36.2475 -1.86889 0
      vertex 36.8541 -1.70634 0
    endloop
  endfacet
  facet normal 0.25882 -0.965926 0
    outer loop
      vertex 36.8541 -1.70634 7.00001
      vertex 36.2475 -1.86889 7.00001
      vertex 36.8541 -1.70634 0
    endloop
  endfacet
  facet normal 0.358367 -0.933581 0
    outer loop
      vertex 36.8541 -1.70634 7.00001
      vertex 36.8541 -1.70634 0
      vertex 37.4404 -1.48127 0
    endloop
  endfacet
  facet normal 0.358367 -0.933581 0
    outer loop
      vertex 37.4404 -1.48127 7.00001
      vertex 36.8541 -1.70634 7.00001
      vertex 37.4404 -1.48127 0
    endloop
  endfacet
  facet normal 0.453991 -0.891006 0
    outer loop
      vertex 37.4404 -1.48127 7.00001
      vertex 37.4404 -1.48127 0
      vertex 38 -1.19615 0
    endloop
  endfacet
  facet normal 0.453991 -0.891006 0
    outer loop
      vertex 38 -1.19615 7.00001
      vertex 37.4404 -1.48127 7.00001
      vertex 38 -1.19615 0
    endloop
  endfacet
  facet normal 0.544638 -0.838671 0
    outer loop
      vertex 38 -1.19615 7.00001
      vertex 38 -1.19615 0
      vertex 38.5267 -0.854102 0
    endloop
  endfacet
  facet normal 0.544638 -0.838671 0
    outer loop
      vertex 38.5267 -0.854102 7.00001
      vertex 38 -1.19615 7.00001
      vertex 38.5267 -0.854102 0
    endloop
  endfacet
  facet normal 0.62932 -0.777146 0
    outer loop
      vertex 38.5267 -0.854102 7.00001
      vertex 38.5267 -0.854102 0
      vertex 39.0148 -0.458869 0
    endloop
  endfacet
  facet normal 0.62932 -0.777146 0
    outer loop
      vertex 39.0148 -0.458869 7.00001
      vertex 38.5267 -0.854102 7.00001
      vertex 39.0148 -0.458869 0
    endloop
  endfacet
  facet normal 0.707107 -0.707107 0
    outer loop
      vertex 39.0148 -0.458869 7.00001
      vertex 39.0148 -0.458869 0
      vertex 39.4589 -0.014784 0
    endloop
  endfacet
  facet normal 0.707107 -0.707107 0
    outer loop
      vertex 39.4589 -0.014784 7.00001
      vertex 39.0148 -0.458869 7.00001
      vertex 39.4589 -0.014784 0
    endloop
  endfacet
  facet normal 0.777146 -0.62932 0
    outer loop
      vertex 39.4589 -0.014784 7.00001
      vertex 39.4589 -0.014784 0
      vertex 39.8541 0.473288 0
    endloop
  endfacet
  facet normal 0.777146 -0.62932 0
    outer loop
      vertex 39.8541 0.473288 7.00001
      vertex 39.4589 -0.014784 7.00001
      vertex 39.8541 0.473288 0
    endloop
  endfacet
  facet normal 0.838671 -0.544638 0
    outer loop
      vertex 39.8541 0.473288 7.00001
      vertex 39.8541 0.473288 0
      vertex 40.1962 1 0
    endloop
  endfacet
  facet normal 0.838671 -0.544638 0
    outer loop
      vertex 40.1962 1 7.00001
      vertex 39.8541 0.473288 7.00001
      vertex 40.1962 1 0
    endloop
  endfacet
  facet normal 0.891006 -0.453991 0
    outer loop
      vertex 40.1962 1 7.00001
      vertex 40.1962 1 0
      vertex 40.4813 1.55958 0
    endloop
  endfacet
  facet normal 0.891006 -0.453991 0
    outer loop
      vertex 40.4813 1.55958 7.00001
      vertex 40.1962 1 7.00001
      vertex 40.4813 1.55958 0
    endloop
  endfacet
  facet normal 0.933581 -0.358367 0
    outer loop
      vertex 40.4813 1.55958 7.00001
      vertex 40.4813 1.55958 0
      vertex 40.7063 2.1459 0
    endloop
  endfacet
  facet normal 0.933581 -0.358367 0
    outer loop
      vertex 40.7063 2.1459 7.00001
      vertex 40.4813 1.55958 7.00001
      vertex 40.7063 2.1459 0
    endloop
  endfacet
  facet normal 0.965926 -0.25882 0
    outer loop
      vertex 40.7063 2.1459 7.00001
      vertex 40.7063 2.1459 0
      vertex 40.8689 2.75253 0
    endloop
  endfacet
  facet normal 0.965926 -0.25882 0
    outer loop
      vertex 40.8689 2.75253 7.00001
      vertex 40.7063 2.1459 7.00001
      vertex 40.8689 2.75253 0
    endloop
  endfacet
  facet normal 0.987689 -0.156433 0
    outer loop
      vertex 40.8689 2.75253 7.00001
      vertex 40.8689 2.75253 0
      vertex 40.9671 3.37283 0
    endloop
  endfacet
  facet normal 0.987689 -0.156433 0
    outer loop
      vertex 40.9671 3.37283 7.00001
      vertex 40.8689 2.75253 7.00001
      vertex 40.9671 3.37283 0
    endloop
  endfacet
  facet normal 0.99863 -0.0523365 0
    outer loop
      vertex 40.9671 3.37283 7.00001
      vertex 40.9671 3.37283 0
      vertex 41 4 0
    endloop
  endfacet
  facet normal 0.99863 -0.0523365 0
    outer loop
      vertex 41 4 7.00001
      vertex 40.9671 3.37283 7.00001
      vertex 41 4 0
    endloop
  endfacet
  facet normal 1 0 0
    outer loop
      vertex 41 4 7.00001
      vertex 41 4 0
      vertex 41 43.5 0
    endloop
  endfacet
  facet normal 1 0 0
    outer loop
      vertex 41 43.5 7.00001
      vertex 41 4 7.00001
      vertex 41 43.5 0
    endloop
  endfacet
  facet normal 0.99863 0.0523365 0
    outer loop
      vertex 41 43.5 0
      vertex 40.9671 44.1272 0
      vertex 40.9671 44.1272 7.00001
    endloop
  endfacet
  facet normal 0.99863 0.0523365 0
    outer loop
      vertex 41 43.5 7.00001
      vertex 41 43.5 0
      vertex 40.9671 44.1272 7.00001
    endloop
  endfacet
  facet normal 0.987689 0.156433 0
    outer loop
      vertex 40.9671 44.1272 0
      vertex 40.8689 44.7475 0
      vertex 40.8689 44.7475 7.00001
    endloop
  endfacet
  facet normal 0.987689 0.156433 0
    outer loop
      vertex 40.9671 44.1272 7.00001
      vertex 40.9671 44.1272 0
      vertex 40.8689 44.7475 7.00001
    endloop
  endfacet
  facet normal 0.965926 0.25882 0
    outer loop
      vertex 40.8689 44.7475 0
      vertex 40.7063 45.3541 0
      vertex 40.7063 45.3541 7.00001
    endloop
  endfacet
  facet normal 0.965926 0.25882 0
    outer loop
      vertex 40.8689 44.7475 7.00001
      vertex 40.8689 44.7475 0
      vertex 40.7063 45.3541 7.00001
    endloop
  endfacet
  facet normal 0.933581 0.358367 0
    outer loop
      vertex 40.7063 45.3541 0
      vertex 40.4813 45.9404 0
      vertex 40.4813 45.9404 7.00001
    endloop
  endfacet
  facet normal 0.933581 0.358367 0
    outer loop
      vertex 40.7063 45.3541 7.00001
      vertex 40.7063 45.3541 0
      vertex 40.4813 45.9404 7.00001
    endloop
  endfacet
  facet normal 0.891006 0.453991 0
    outer loop
      vertex 40.4813 45.9404 0
      vertex 40.1962 46.5 0
      vertex 40.1962 46.5 7.00001
    endloop
  endfacet
  facet normal 0.891006 0.453991 0
    outer loop
      vertex 40.4813 45.9404 7.00001
      vertex 40.4813 45.9404 0
      vertex 40.1962 46.5 7.00001
    endloop
  endfacet
  facet normal 0.838671 0.544638 0
    outer loop
      vertex 40.1962 46.5 0
      vertex 39.8541 47.0267 0
      vertex 39.8541 47.0267 7.00001
    endloop
  endfacet
  facet normal 0.838671 0.544638 0
    outer loop
      vertex 40.1962 46.5 7.00001
      vertex 40.1962 46.5 0
      vertex 39.8541 47.0267 7.00001
    endloop
  endfacet
  facet normal 0.777146 0.62932 0
    outer loop
      vertex 39.8541 47.0267 0
      vertex 39.4589 47.5148 0
      vertex 39.4589 47.5148 7.00001
    endloop
  endfacet
  facet normal 0.777146 0.62932 0
    outer loop
      vertex 39.8541 47.0267 7.00001
      vertex 39.8541 47.0267 0
      vertex 39.4589 47.5148 7.00001
    endloop
  endfacet
  facet normal 0.707107 0.707107 0
    outer loop
      vertex 39.0148 47.9589 0
      vertex 39.0148 47.9589 7.00001
      vertex 39.4589 47.5148 0
    endloop
  endfacet
  facet normal 0.707107 0.707107 0
    outer loop
      vertex 39.4589 47.5148 0
      vertex 39.0148 47.9589 7.00001
      vertex 39.4589 47.5148 7.00001
    endloop
  endfacet
  facet normal 0.62932 0.777146 0
    outer loop
      vertex 38.5267 48.3541 0
      vertex 38.5267 48.3541 7.00001
      vertex 39.0148 47.9589 0
    endloop
  endfacet
  facet normal 0.62932 0.777146 0
    outer loop
      vertex 39.0148 47.9589 0
      vertex 38.5267 48.3541 7.00001
      vertex 39.0148 47.9589 7.00001
    endloop
  endfacet
  facet normal 0.544638 0.838671 0
    outer loop
      vertex 38 48.6962 0
      vertex 38 48.6962 7.00001
      vertex 38.5267 48.3541 0
    endloop
  endfacet
  facet normal 0.544638 0.838671 0
    outer loop
      vertex 38.5267 48.3541 0
      vertex 38 48.6962 7.00001
      vertex 38.5267 48.3541 7.00001
    endloop
  endfacet
  facet normal 0.453991 0.891006 0
    outer loop
      vertex 37.4404 48.9813 0
      vertex 37.4404 48.9813 7.00001
      vertex 38 48.6962 0
    endloop
  endfacet
  facet normal 0.453991 0.891006 0
    outer loop
      vertex 38 48.6962 0
      vertex 37.4404 48.9813 7.00001
      vertex 38 48.6962 7.00001
    endloop
  endfacet
  facet normal 0.358367 0.933581 0
    outer loop
      vertex 36.8541 49.2063 0
      vertex 36.8541 49.2063 7.00001
      vertex 37.4404 48.9813 0
    endloop
  endfacet
  facet normal 0.358367 0.933581 0
    outer loop
      vertex 37.4404 48.9813 0
      vertex 36.8541 49.2063 7.00001
      vertex 37.4404 48.9813 7.00001
    endloop
  endfacet
  facet normal 0.25882 0.965926 0
    outer loop
      vertex 36.2475 49.3689 0
      vertex 36.2475 49.3689 7.00001
      vertex 36.8541 49.2063 0
    endloop
  endfacet
  facet normal 0.25882 0.965926 0
    outer loop
      vertex 36.8541 49.2063 0
      vertex 36.2475 49.3689 7.00001
      vertex 36.8541 49.2063 7.00001
    endloop
  endfacet
  facet normal 0.156433 0.987689 0
    outer loop
      vertex 35.6272 49.4671 0
      vertex 35.6272 49.4671 7.00001
      vertex 36.2475 49.3689 0
    endloop
  endfacet
  facet normal 0.156433 0.987689 0
    outer loop
      vertex 36.2475 49.3689 0
      vertex 35.6272 49.4671 7.00001
      vertex 36.2475 49.3689 7.00001
    endloop
  endfacet
  facet normal 0.0523365 0.99863 0
    outer loop
      vertex 35 49.5 0
      vertex 35 49.5 7.00001
      vertex 35.6272 49.4671 0
    endloop
  endfacet
  facet normal 0.0523365 0.99863 0
    outer loop
      vertex 35.6272 49.4671 0
      vertex 35 49.5 7.00001
      vertex 35.6272 49.4671 7.00001
    endloop
  endfacet
  facet normal 0 1 0
    outer loop
      vertex 4 49.5 0
      vertex 4 49.5 7.00001
      vertex 35 49.5 0
    endloop
  endfacet
  facet normal 0 1 0
    outer loop
      vertex 35 49.5 0
      vertex 4 49.5 7.00001
      vertex 35 49.5 7.00001
    endloop
  endfacet
  facet normal -0.0523365 0.99863 0
    outer loop
      vertex 3.37283 49.4671 0
      vertex 3.37283 49.4671 7.00001
      vertex 4 49.5 0
    endloop
  endfacet
  facet normal -0.0523365 0.99863 0
    outer loop
      vertex 4 49.5 0
      vertex 3.37283 49.4671 7.00001
      vertex 4 49.5 7.00001
    endloop
  endfacet
  facet normal -0.156433 0.987689 0
    outer loop
      vertex 2.75253 49.3689 0
      vertex 2.75253 49.3689 7.00001
      vertex 3.37283 49.4671 0
    endloop
  endfacet
  facet normal -0.156433 0.987689 0
    outer loop
      vertex 3.37283 49.4671 0
      vertex 2.75253 49.3689 7.00001
      vertex 3.37283 49.4671 7.00001
    endloop
  endfacet
  facet normal -0.25882 0.965926 0
    outer loop
      vertex 2.1459 49.2063 0
      vertex 2.1459 49.2063 7.00001
      vertex 2.75253 49.3689 0
    endloop
  endfacet
  facet normal -0.25882 0.965926 0
    outer loop
      vertex 2.75253 49.3689 0
      vertex 2.1459 49.2063 7.00001
      vertex 2.75253 49.3689 7.00001
    endloop
  endfacet
  facet normal -0.358367 0.933581 0
    outer loop
      vertex 1.55958 48.9813 0
      vertex 1.55958 48.9813 7.00001
      vertex 2.1459 49.2063 0
    endloop
  endfacet
  facet normal -0.358367 0.933581 0
    outer loop
      vertex 2.1459 49.2063 0
      vertex 1.55958 48.9813 7.00001
      vertex 2.1459 49.2063 7.00001
    endloop
  endfacet
  facet normal -0.453991 0.891006 0
    outer loop
      vertex 1 48.6962 0
      vertex 1 48.6962 7.00001
      vertex 1.55958 48.9813 0
    endloop
  endfacet
  facet normal -0.453991 0.891006 0
    outer loop
      vertex 1.55958 48.9813 0
      vertex 1 48.6962 7.00001
      vertex 1.55958 48.9813 7.00001
    endloop
  endfacet
  facet normal -0.544638 0.838671 0
    outer loop
      vertex 0.473288 48.3541 0
      vertex 0.473288 48.3541 7.00001
      vertex 1 48.6962 0
    endloop
  endfacet
  facet normal -0.544638 0.838671 0
    outer loop
      vertex 1 48.6962 0
      vertex 0.473288 48.3541 7.00001
      vertex 1 48.6962 7.00001
    endloop
  endfacet
  facet normal -0.62932 0.777146 0
    outer loop
      vertex -0.014784 47.9589 0
      vertex -0.014784 47.9589 7.00001
      vertex 0.473288 48.3541 0
    endloop
  endfacet
  facet normal -0.62932 0.777146 0
    outer loop
      vertex 0.473288 48.3541 0
      vertex -0.014784 47.9589 7.00001
      vertex 0.473288 48.3541 7.00001
    endloop
  endfacet
  facet normal -0.707107 0.707107 0
    outer loop
      vertex -0.458869 47.5148 0
      vertex -0.458869 47.5148 7.00001
      vertex -0.014784 47.9589 0
    endloop
  endfacet
  facet normal -0.707107 0.707107 0
    outer loop
      vertex -0.014784 47.9589 0
      vertex -0.458869 47.5148 7.00001
      vertex -0.014784 47.9589 7.00001
    endloop
  endfacet
  facet normal -0.777146 0.62932 0
    outer loop
      vertex -0.854102 47.0267 0
      vertex -0.854102 47.0267 7.00001
      vertex -0.458869 47.5148 0
    endloop
  endfacet
  facet normal -0.777146 0.62932 0
    outer loop
      vertex -0.458869 47.5148 0
      vertex -0.854102 47.0267 7.00001
      vertex -0.458869 47.5148 7.00001
    endloop
  endfacet
  facet normal -0.838671 0.544638 0
    outer loop
      vertex -1.19615 46.5 0
      vertex -1.19615 46.5 7.00001
      vertex -0.854102 47.0267 0
    endloop
  endfacet
  facet normal -0.838671 0.544638 0
    outer loop
      vertex -0.854102 47.0267 0
      vertex -1.19615 46.5 7.00001
      vertex -0.854102 47.0267 7.00001
    endloop
  endfacet
  facet normal -0.891006 0.453991 0
    outer loop
      vertex -1.48127 45.9404 0
      vertex -1.48127 45.9404 7.00001
      vertex -1.19615 46.5 0
    endloop
  endfacet
  facet normal -0.891006 0.453991 0
    outer loop
      vertex -1.19615 46.5 0
      vertex -1.48127 45.9404 7.00001
      vertex -1.19615 46.5 7.00001
    endloop
  endfacet
  facet normal -0.933581 0.358367 0
    outer loop
      vertex -1.70634 45.3541 0
      vertex -1.70634 45.3541 7.00001
      vertex -1.48127 45.9404 0
    endloop
  endfacet
  facet normal -0.933581 0.358367 0
    outer loop
      vertex -1.48127 45.9404 0
      vertex -1.70634 45.3541 7.00001
      vertex -1.48127 45.9404 7.00001
    endloop
  endfacet
  facet normal -0.965926 0.25882 0
    outer loop
      vertex -1.86889 44.7475 0
      vertex -1.86889 44.7475 7.00001
      vertex -1.70634 45.3541 0
    endloop
  endfacet
  facet normal -0.965926 0.25882 0
    outer loop
      vertex -1.70634 45.3541 0
      vertex -1.86889 44.7475 7.00001
      vertex -1.70634 45.3541 7.00001
    endloop
  endfacet
  facet normal -0.987689 0.156433 0
    outer loop
      vertex -1.96713 44.1272 0
      vertex -1.96713 44.1272 7.00001
      vertex -1.86889 44.7475 0
    endloop
  endfacet
  facet normal -0.987689 0.156433 0
    outer loop
      vertex -1.86889 44.7475 0
      vertex -1.96713 44.1272 7.00001
      vertex -1.86889 44.7475 7.00001
    endloop
  endfacet
  facet normal 1 0 0
    outer loop
      vertex -0.1 43.6 1.9
      vertex -0.1 43.6 7.00001
      vertex -0.1 28.5 7.00001
    endloop
  endfacet
  facet normal 1 0 0
    outer loop
      vertex -0.1 18.5 2
      vertex -0.1 43.6 1.9
      vertex -0.1 28.5 2
    endloop
  endfacet
  facet normal 1 0 0
    outer loop
      vertex -0.1 28.5 2
      vertex -0.1 43.6 1.9
      vertex -0.1 28.5 7.00001
    endloop
  endfacet
  facet normal 1 0 0
    outer loop
      vertex -0.1 3.9 1.9
      vertex -0.1 43.6 1.9
      vertex -0.1 18.5 2
    endloop
  endfacet
  facet normal 1 0 0
    outer loop
      vertex -0.1 3.9 7.00001
      vertex -0.1 18.5 2
      vertex -0.1 18.5 7.00001
    endloop
  endfacet
  facet normal 1 0 0
    outer loop
      vertex -0.1 3.9 1.9
      vertex -0.1 18.5 2
      vertex -0.1 3.9 7.00001
    endloop
  endfacet
  facet normal 0.99863 0.0523349 0
    outer loop
      vertex -0.1 3.9 7.00001
      vertex -0.078088 3.48189 7.00001
      vertex -0.078088 3.48189 1.9
    endloop
  endfacet
  facet normal 0.99863 0.0523349 0
    outer loop
      vertex -0.1 3.9 1.9
      vertex -0.1 3.9 7.00001
      vertex -0.078088 3.48189 1.9
    endloop
  endfacet
  facet normal 0.987688 0.156436 0
    outer loop
      vertex -0.078088 3.48189 7.00001
      vertex -0.01259 3.06835 7.00001
      vertex -0.01259 3.06835 1.9
    endloop
  endfacet
  facet normal 0.987688 0.156436 0
    outer loop
      vertex -0.078088 3.48189 1.9
      vertex -0.078088 3.48189 7.00001
      vertex -0.01259 3.06835 1.9
    endloop
  endfacet
  facet normal 0.965926 0.258818 0
    outer loop
      vertex -0.01259 3.06835 7.00001
      vertex 0.095774 2.66393 7.00001
      vertex 0.095774 2.66393 1.9
    endloop
  endfacet
  facet normal 0.965926 0.258818 0
    outer loop
      vertex -0.01259 3.06835 1.9
      vertex -0.01259 3.06835 7.00001
      vertex 0.095774 2.66393 1.9
    endloop
  endfacet
  facet normal 0.933581 0.358367 0
    outer loop
      vertex 0.095774 2.66393 7.00001
      vertex 0.245818 2.27305 7.00001
      vertex 0.245818 2.27305 1.9
    endloop
  endfacet
  facet normal 0.933581 0.358367 0
    outer loop
      vertex 0.095774 2.66393 1.9
      vertex 0.095774 2.66393 7.00001
      vertex 0.245818 2.27305 1.9
    endloop
  endfacet
  facet normal 0.891007 0.453991 0
    outer loop
      vertex 0.245818 2.27305 7.00001
      vertex 0.435898 1.9 7.00001
      vertex 0.435898 1.9 1.9
    endloop
  endfacet
  facet normal 0.891007 0.453991 0
    outer loop
      vertex 0.245818 2.27305 1.9
      vertex 0.245818 2.27305 7.00001
      vertex 0.435898 1.9 1.9
    endloop
  endfacet
  facet normal 0.83867 0.54464 0
    outer loop
      vertex 0.435898 1.9 7.00001
      vertex 0.663932 1.54886 7.00001
      vertex 0.663932 1.54886 1.9
    endloop
  endfacet
  facet normal 0.83867 0.54464 0
    outer loop
      vertex 0.435898 1.9 1.9
      vertex 0.435898 1.9 7.00001
      vertex 0.663932 1.54886 1.9
    endloop
  endfacet
  facet normal 0.777145 0.629321 0
    outer loop
      vertex 0.663932 1.54886 7.00001
      vertex 0.927421 1.22348 7.00001
      vertex 0.927421 1.22348 1.9
    endloop
  endfacet
  facet normal 0.777145 0.629321 0
    outer loop
      vertex 0.663932 1.54886 1.9
      vertex 0.663932 1.54886 7.00001
      vertex 0.927421 1.22348 1.9
    endloop
  endfacet
  facet normal 0.707107 0.707107 0
    outer loop
      vertex 1.22348 0.927421 7.00001
      vertex 1.22348 0.927421 1.9
      vertex 0.927421 1.22348 7.00001
    endloop
  endfacet
  facet normal 0.707107 0.707107 0
    outer loop
      vertex 0.927421 1.22348 7.00001
      vertex 1.22348 0.927421 1.9
      vertex 0.927421 1.22348 1.9
    endloop
  endfacet
  facet normal 0.629321 0.777145 0
    outer loop
      vertex 1.54886 0.663932 7.00001
      vertex 1.54886 0.663932 1.9
      vertex 1.22348 0.927421 7.00001
    endloop
  endfacet
  facet normal 0.629321 0.777145 0
    outer loop
      vertex 1.22348 0.927421 7.00001
      vertex 1.54886 0.663932 1.9
      vertex 1.22348 0.927421 1.9
    endloop
  endfacet
  facet normal 0.54464 0.83867 0
    outer loop
      vertex 1.9 0.435898 7.00001
      vertex 1.9 0.435898 1.9
      vertex 1.54886 0.663932 7.00001
    endloop
  endfacet
  facet normal 0.54464 0.83867 0
    outer loop
      vertex 1.54886 0.663932 7.00001
      vertex 1.9 0.435898 1.9
      vertex 1.54886 0.663932 1.9
    endloop
  endfacet
  facet normal 0.453991 0.891007 0
    outer loop
      vertex 2.27305 0.245818 7.00001
      vertex 2.27305 0.245818 1.9
      vertex 1.9 0.435898 7.00001
    endloop
  endfacet
  facet normal 0.453991 0.891007 0
    outer loop
      vertex 1.9 0.435898 7.00001
      vertex 2.27305 0.245818 1.9
      vertex 1.9 0.435898 1.9
    endloop
  endfacet
  facet normal 0.358367 0.933581 0
    outer loop
      vertex 2.66393 0.095774 7.00001
      vertex 2.66393 0.095774 1.9
      vertex 2.27305 0.245818 7.00001
    endloop
  endfacet
  facet normal 0.358367 0.933581 0
    outer loop
      vertex 2.27305 0.245818 7.00001
      vertex 2.66393 0.095774 1.9
      vertex 2.27305 0.245818 1.9
    endloop
  endfacet
  facet normal 0.258818 0.965926 0
    outer loop
      vertex 3.06835 -0.01259 7.00001
      vertex 3.06835 -0.01259 1.9
      vertex 2.66393 0.095774 7.00001
    endloop
  endfacet
  facet normal 0.258818 0.965926 0
    outer loop
      vertex 2.66393 0.095774 7.00001
      vertex 3.06835 -0.01259 1.9
      vertex 2.66393 0.095774 1.9
    endloop
  endfacet
  facet normal 0.156436 0.987688 0
    outer loop
      vertex 3.48189 -0.078088 7.00001
      vertex 3.48189 -0.078088 1.9
      vertex 3.06835 -0.01259 7.00001
    endloop
  endfacet
  facet normal 0.156436 0.987688 0
    outer loop
      vertex 3.06835 -0.01259 7.00001
      vertex 3.48189 -0.078088 1.9
      vertex 3.06835 -0.01259 1.9
    endloop
  endfacet
  facet normal 0.0523349 0.99863 0
    outer loop
      vertex 3.9 -0.1 7.00001
      vertex 3.9 -0.1 1.9
      vertex 3.48189 -0.078088 7.00001
    endloop
  endfacet
  facet normal 0.0523349 0.99863 0
    outer loop
      vertex 3.48189 -0.078088 7.00001
      vertex 3.9 -0.1 1.9
      vertex 3.48189 -0.078088 1.9
    endloop
  endfacet
  facet normal 0 1 0
    outer loop
      vertex 35.1 -0.1 7.00001
      vertex 35.1 -0.1 1.9
      vertex 3.9 -0.1 7.00001
    endloop
  endfacet
  facet normal 0 1 0
    outer loop
      vertex 3.9 -0.1 7.00001
      vertex 35.1 -0.1 1.9
      vertex 3.9 -0.1 1.9
    endloop
  endfacet
  facet normal -0.0523349 0.99863 0
    outer loop
      vertex 35.5181 -0.078088 7.00001
      vertex 35.5181 -0.078088 1.9
      vertex 35.1 -0.1 7.00001
    endloop
  endfacet
  facet normal -0.0523349 0.99863 0
    outer loop
      vertex 35.1 -0.1 7.00001
      vertex 35.5181 -0.078088 1.9
      vertex 35.1 -0.1 1.9
    endloop
  endfacet
  facet normal -0.156436 0.987688 0
    outer loop
      vertex 35.9316 -0.01259 7.00001
      vertex 35.9316 -0.01259 1.9
      vertex 35.5181 -0.078088 7.00001
    endloop
  endfacet
  facet normal -0.156436 0.987688 0
    outer loop
      vertex 35.5181 -0.078088 7.00001
      vertex 35.9316 -0.01259 1.9
      vertex 35.5181 -0.078088 1.9
    endloop
  endfacet
  facet normal -0.258818 0.965926 0
    outer loop
      vertex 36.3361 0.095774 7.00001
      vertex 36.3361 0.095774 1.9
      vertex 35.9316 -0.01259 7.00001
    endloop
  endfacet
  facet normal -0.258818 0.965926 0
    outer loop
      vertex 35.9316 -0.01259 7.00001
      vertex 36.3361 0.095774 1.9
      vertex 35.9316 -0.01259 1.9
    endloop
  endfacet
  facet normal -0.358367 0.933581 0
    outer loop
      vertex 36.7269 0.245818 7.00001
      vertex 36.7269 0.245818 1.9
      vertex 36.3361 0.095774 7.00001
    endloop
  endfacet
  facet normal -0.358367 0.933581 0
    outer loop
      vertex 36.3361 0.095774 7.00001
      vertex 36.7269 0.245818 1.9
      vertex 36.3361 0.095774 1.9
    endloop
  endfacet
  facet normal -0.453991 0.891007 0
    outer loop
      vertex 37.1 0.435898 7.00001
      vertex 37.1 0.435898 1.9
      vertex 36.7269 0.245818 7.00001
    endloop
  endfacet
  facet normal -0.453991 0.891007 0
    outer loop
      vertex 36.7269 0.245818 7.00001
      vertex 37.1 0.435898 1.9
      vertex 36.7269 0.245818 1.9
    endloop
  endfacet
  facet normal -0.54464 0.83867 0
    outer loop
      vertex 37.4511 0.663932 7.00001
      vertex 37.4511 0.663932 1.9
      vertex 37.1 0.435898 7.00001
    endloop
  endfacet
  facet normal -0.54464 0.83867 0
    outer loop
      vertex 37.1 0.435898 7.00001
      vertex 37.4511 0.663932 1.9
      vertex 37.1 0.435898 1.9
    endloop
  endfacet
  facet normal -0.629321 0.777145 0
    outer loop
      vertex 37.7765 0.927421 7.00001
      vertex 37.7765 0.927421 1.9
      vertex 37.4511 0.663932 7.00001
    endloop
  endfacet
  facet normal -0.629321 0.777145 0
    outer loop
      vertex 37.4511 0.663932 7.00001
      vertex 37.7765 0.927421 1.9
      vertex 37.4511 0.663932 1.9
    endloop
  endfacet
  facet normal -0.707107 0.707107 0
    outer loop
      vertex 38.0726 1.22348 7.00001
      vertex 38.0726 1.22348 1.9
      vertex 37.7765 0.927421 7.00001
    endloop
  endfacet
  facet normal -0.707107 0.707107 0
    outer loop
      vertex 37.7765 0.927421 7.00001
      vertex 38.0726 1.22348 1.9
      vertex 37.7765 0.927421 1.9
    endloop
  endfacet
  facet normal -0.777145 0.629321 0
    outer loop
      vertex 38.3361 1.54886 7.00001
      vertex 38.3361 1.54886 1.9
      vertex 38.0726 1.22348 7.00001
    endloop
  endfacet
  facet normal -0.777145 0.629321 0
    outer loop
      vertex 38.0726 1.22348 7.00001
      vertex 38.3361 1.54886 1.9
      vertex 38.0726 1.22348 1.9
    endloop
  endfacet
  facet normal -0.83867 0.54464 0
    outer loop
      vertex 38.5641 1.9 7.00001
      vertex 38.5641 1.9 1.9
      vertex 38.3361 1.54886 7.00001
    endloop
  endfacet
  facet normal -0.83867 0.54464 0
    outer loop
      vertex 38.3361 1.54886 7.00001
      vertex 38.5641 1.9 1.9
      vertex 38.3361 1.54886 1.9
    endloop
  endfacet
  facet normal -0.891007 0.453991 0
    outer loop
      vertex 38.7542 2.27305 7.00001
      vertex 38.7542 2.27305 1.9
      vertex 38.5641 1.9 7.00001
    endloop
  endfacet
  facet normal -0.891007 0.453991 0
    outer loop
      vertex 38.5641 1.9 7.00001
      vertex 38.7542 2.27305 1.9
      vertex 38.5641 1.9 1.9
    endloop
  endfacet
  facet normal -0.933581 0.358367 0
    outer loop
      vertex 38.9042 2.66393 7.00001
      vertex 38.9042 2.66393 1.9
      vertex 38.7542 2.27305 7.00001
    endloop
  endfacet
  facet normal -0.933581 0.358367 0
    outer loop
      vertex 38.7542 2.27305 7.00001
      vertex 38.9042 2.66393 1.9
      vertex 38.7542 2.27305 1.9
    endloop
  endfacet
  facet normal -0.965926 0.258818 0
    outer loop
      vertex 39.0126 3.06835 7.00001
      vertex 39.0126 3.06835 1.9
      vertex 38.9042 2.66393 7.00001
    endloop
  endfacet
  facet normal -0.965926 0.258818 0
    outer loop
      vertex 38.9042 2.66393 7.00001
      vertex 39.0126 3.06835 1.9
      vertex 38.9042 2.66393 1.9
    endloop
  endfacet
  facet normal -0.987688 0.156436 0
    outer loop
      vertex 39.0781 3.48189 7.00001
      vertex 39.0781 3.48189 1.9
      vertex 39.0126 3.06835 7.00001
    endloop
  endfacet
  facet normal -0.987688 0.156436 0
    outer loop
      vertex 39.0126 3.06835 7.00001
      vertex 39.0781 3.48189 1.9
      vertex 39.0126 3.06835 1.9
    endloop
  endfacet
  facet normal -0.99863 0.0523349 0
    outer loop
      vertex 39.1 3.9 7.00001
      vertex 39.1 3.9 1.9
      vertex 39.0781 3.48189 7.00001
    endloop
  endfacet
  facet normal -0.99863 0.0523349 0
    outer loop
      vertex 39.0781 3.48189 7.00001
      vertex 39.1 3.9 1.9
      vertex 39.0781 3.48189 1.9
    endloop
  endfacet
  facet normal -1 0 0
    outer loop
      vertex 39.1 43.6 7.00001
      vertex 39.1 43.6 1.9
      vertex 39.1 3.9 7.00001
    endloop
  endfacet
  facet normal -1 0 0
    outer loop
      vertex 39.1 3.9 7.00001
      vertex 39.1 43.6 1.9
      vertex 39.1 3.9 1.9
    endloop
  endfacet
  facet normal -0.99863 -0.0523349 0
    outer loop
      vertex 39.1 43.6 7.00001
      vertex 39.0781 44.0181 7.00001
      vertex 39.1 43.6 1.9
    endloop
  endfacet
  facet normal -0.99863 -0.0523349 0
    outer loop
      vertex 39.1 43.6 1.9
      vertex 39.0781 44.0181 7.00001
      vertex 39.0781 44.0181 1.9
    endloop
  endfacet
  facet normal -0.987688 -0.156436 0
    outer loop
      vertex 39.0781 44.0181 7.00001
      vertex 39.0126 44.4316 7.00001
      vertex 39.0781 44.0181 1.9
    endloop
  endfacet
  facet normal -0.987688 -0.156436 0
    outer loop
      vertex 39.0781 44.0181 1.9
      vertex 39.0126 44.4316 7.00001
      vertex 39.0126 44.4316 1.9
    endloop
  endfacet
  facet normal -0.965926 -0.258818 0
    outer loop
      vertex 39.0126 44.4316 7.00001
      vertex 38.9042 44.8361 7.00001
      vertex 39.0126 44.4316 1.9
    endloop
  endfacet
  facet normal -0.965926 -0.258818 0
    outer loop
      vertex 39.0126 44.4316 1.9
      vertex 38.9042 44.8361 7.00001
      vertex 38.9042 44.8361 1.9
    endloop
  endfacet
  facet normal -0.933581 -0.358367 0
    outer loop
      vertex 38.9042 44.8361 7.00001
      vertex 38.7542 45.2269 7.00001
      vertex 38.9042 44.8361 1.9
    endloop
  endfacet
  facet normal -0.933581 -0.358367 0
    outer loop
      vertex 38.9042 44.8361 1.9
      vertex 38.7542 45.2269 7.00001
      vertex 38.7542 45.2269 1.9
    endloop
  endfacet
  facet normal -0.891007 -0.453991 0
    outer loop
      vertex 38.7542 45.2269 7.00001
      vertex 38.5641 45.6 7.00001
      vertex 38.7542 45.2269 1.9
    endloop
  endfacet
  facet normal -0.891007 -0.453991 0
    outer loop
      vertex 38.7542 45.2269 1.9
      vertex 38.5641 45.6 7.00001
      vertex 38.5641 45.6 1.9
    endloop
  endfacet
  facet normal -0.83867 -0.54464 0
    outer loop
      vertex 38.5641 45.6 7.00001
      vertex 38.3361 45.9511 7.00001
      vertex 38.5641 45.6 1.9
    endloop
  endfacet
  facet normal -0.83867 -0.54464 0
    outer loop
      vertex 38.5641 45.6 1.9
      vertex 38.3361 45.9511 7.00001
      vertex 38.3361 45.9511 1.9
    endloop
  endfacet
  facet normal -0.777145 -0.629321 0
    outer loop
      vertex 38.3361 45.9511 7.00001
      vertex 38.0726 46.2765 7.00001
      vertex 38.3361 45.9511 1.9
    endloop
  endfacet
  facet normal -0.777145 -0.629321 0
    outer loop
      vertex 38.3361 45.9511 1.9
      vertex 38.0726 46.2765 7.00001
      vertex 38.0726 46.2765 1.9
    endloop
  endfacet
  facet normal -0.707107 -0.707107 0
    outer loop
      vertex 38.0726 46.2765 1.9
      vertex 38.0726 46.2765 7.00001
      vertex 37.7765 46.5726 7.00001
    endloop
  endfacet
  facet normal -0.707107 -0.707107 0
    outer loop
      vertex 37.7765 46.5726 1.9
      vertex 38.0726 46.2765 1.9
      vertex 37.7765 46.5726 7.00001
    endloop
  endfacet
  facet normal -0.629321 -0.777145 0
    outer loop
      vertex 37.7765 46.5726 1.9
      vertex 37.7765 46.5726 7.00001
      vertex 37.4511 46.8361 7.00001
    endloop
  endfacet
  facet normal -0.629321 -0.777145 0
    outer loop
      vertex 37.4511 46.8361 1.9
      vertex 37.7765 46.5726 1.9
      vertex 37.4511 46.8361 7.00001
    endloop
  endfacet
  facet normal -0.54464 -0.83867 0
    outer loop
      vertex 37.4511 46.8361 1.9
      vertex 37.4511 46.8361 7.00001
      vertex 37.1 47.0641 7.00001
    endloop
  endfacet
  facet normal -0.54464 -0.83867 0
    outer loop
      vertex 37.1 47.0641 1.9
      vertex 37.4511 46.8361 1.9
      vertex 37.1 47.0641 7.00001
    endloop
  endfacet
  facet normal -0.453991 -0.891007 0
    outer loop
      vertex 37.1 47.0641 1.9
      vertex 37.1 47.0641 7.00001
      vertex 36.7269 47.2542 7.00001
    endloop
  endfacet
  facet normal -0.453991 -0.891007 0
    outer loop
      vertex 36.7269 47.2542 1.9
      vertex 37.1 47.0641 1.9
      vertex 36.7269 47.2542 7.00001
    endloop
  endfacet
  facet normal -0.358367 -0.933581 0
    outer loop
      vertex 36.7269 47.2542 1.9
      vertex 36.7269 47.2542 7.00001
      vertex 36.3361 47.4042 7.00001
    endloop
  endfacet
  facet normal -0.358367 -0.933581 0
    outer loop
      vertex 36.3361 47.4042 1.9
      vertex 36.7269 47.2542 1.9
      vertex 36.3361 47.4042 7.00001
    endloop
  endfacet
  facet normal -0.258818 -0.965926 0
    outer loop
      vertex 36.3361 47.4042 1.9
      vertex 36.3361 47.4042 7.00001
      vertex 35.9316 47.5126 7.00001
    endloop
  endfacet
  facet normal -0.258818 -0.965926 0
    outer loop
      vertex 35.9316 47.5126 1.9
      vertex 36.3361 47.4042 1.9
      vertex 35.9316 47.5126 7.00001
    endloop
  endfacet
  facet normal -0.156436 -0.987688 0
    outer loop
      vertex 35.9316 47.5126 1.9
      vertex 35.9316 47.5126 7.00001
      vertex 35.5181 47.5781 7.00001
    endloop
  endfacet
  facet normal -0.156436 -0.987688 0
    outer loop
      vertex 35.5181 47.5781 1.9
      vertex 35.9316 47.5126 1.9
      vertex 35.5181 47.5781 7.00001
    endloop
  endfacet
  facet normal -0.0523349 -0.99863 0
    outer loop
      vertex 35.5181 47.5781 1.9
      vertex 35.5181 47.5781 7.00001
      vertex 35.1 47.6 7.00001
    endloop
  endfacet
  facet normal -0.0523349 -0.99863 0
    outer loop
      vertex 35.1 47.6 1.9
      vertex 35.5181 47.5781 1.9
      vertex 35.1 47.6 7.00001
    endloop
  endfacet
  facet normal 0 -1 0
    outer loop
      vertex 35.1 47.6 1.9
      vertex 35.1 47.6 7.00001
      vertex 3.9 47.6 7.00001
    endloop
  endfacet
  facet normal 0 -1 0
    outer loop
      vertex 3.9 47.6 1.9
      vertex 35.1 47.6 1.9
      vertex 3.9 47.6 7.00001
    endloop
  endfacet
  facet normal 0.0523349 -0.99863 0
    outer loop
      vertex 3.9 47.6 1.9
      vertex 3.9 47.6 7.00001
      vertex 3.48189 47.5781 7.00001
    endloop
  endfacet
  facet normal 0.0523349 -0.99863 0
    outer loop
      vertex 3.48189 47.5781 1.9
      vertex 3.9 47.6 1.9
      vertex 3.48189 47.5781 7.00001
    endloop
  endfacet
  facet normal 0.156436 -0.987688 0
    outer loop
      vertex 3.48189 47.5781 1.9
      vertex 3.48189 47.5781 7.00001
      vertex 3.06835 47.5126 7.00001
    endloop
  endfacet
  facet normal 0.156436 -0.987688 0
    outer loop
      vertex 3.06835 47.5126 1.9
      vertex 3.48189 47.5781 1.9
      vertex 3.06835 47.5126 7.00001
    endloop
  endfacet
  facet normal 0.258818 -0.965926 0
    outer loop
      vertex 3.06835 47.5126 1.9
      vertex 3.06835 47.5126 7.00001
      vertex 2.66393 47.4042 7.00001
    endloop
  endfacet
  facet normal 0.258818 -0.965926 0
    outer loop
      vertex 2.66393 47.4042 1.9
      vertex 3.06835 47.5126 1.9
      vertex 2.66393 47.4042 7.00001
    endloop
  endfacet
  facet normal 0.358367 -0.933581 0
    outer loop
      vertex 2.66393 47.4042 1.9
      vertex 2.66393 47.4042 7.00001
      vertex 2.27305 47.2542 7.00001
    endloop
  endfacet
  facet normal 0.358367 -0.933581 0
    outer loop
      vertex 2.27305 47.2542 1.9
      vertex 2.66393 47.4042 1.9
      vertex 2.27305 47.2542 7.00001
    endloop
  endfacet
  facet normal 0.453991 -0.891007 0
    outer loop
      vertex 2.27305 47.2542 1.9
      vertex 2.27305 47.2542 7.00001
      vertex 1.9 47.0641 7.00001
    endloop
  endfacet
  facet normal 0.453991 -0.891007 0
    outer loop
      vertex 1.9 47.0641 1.9
      vertex 2.27305 47.2542 1.9
      vertex 1.9 47.0641 7.00001
    endloop
  endfacet
  facet normal 0.54464 -0.83867 0
    outer loop
      vertex 1.9 47.0641 1.9
      vertex 1.9 47.0641 7.00001
      vertex 1.54886 46.8361 7.00001
    endloop
  endfacet
  facet normal 0.54464 -0.83867 0
    outer loop
      vertex 1.54886 46.8361 1.9
      vertex 1.9 47.0641 1.9
      vertex 1.54886 46.8361 7.00001
    endloop
  endfacet
  facet normal 0.629321 -0.777145 0
    outer loop
      vertex 1.54886 46.8361 1.9
      vertex 1.54886 46.8361 7.00001
      vertex 1.22348 46.5726 7.00001
    endloop
  endfacet
  facet normal 0.629321 -0.777145 0
    outer loop
      vertex 1.22348 46.5726 1.9
      vertex 1.54886 46.8361 1.9
      vertex 1.22348 46.5726 7.00001
    endloop
  endfacet
  facet normal 0.707107 -0.707107 0
    outer loop
      vertex 1.22348 46.5726 1.9
      vertex 1.22348 46.5726 7.00001
      vertex 0.927421 46.2765 7.00001
    endloop
  endfacet
  facet normal 0.707107 -0.707107 0
    outer loop
      vertex 0.927421 46.2765 1.9
      vertex 1.22348 46.5726 1.9
      vertex 0.927421 46.2765 7.00001
    endloop
  endfacet
  facet normal 0.777145 -0.629321 0
    outer loop
      vertex 0.927421 46.2765 1.9
      vertex 0.927421 46.2765 7.00001
      vertex 0.663932 45.9511 7.00001
    endloop
  endfacet
  facet normal 0.777145 -0.629321 0
    outer loop
      vertex 0.663932 45.9511 1.9
      vertex 0.927421 46.2765 1.9
      vertex 0.663932 45.9511 7.00001
    endloop
  endfacet
  facet normal 0.83867 -0.54464 0
    outer loop
      vertex 0.663932 45.9511 1.9
      vertex 0.663932 45.9511 7.00001
      vertex 0.435898 45.6 7.00001
    endloop
  endfacet
  facet normal 0.83867 -0.54464 0
    outer loop
      vertex 0.435898 45.6 1.9
      vertex 0.663932 45.9511 1.9
      vertex 0.435898 45.6 7.00001
    endloop
  endfacet
  facet normal 0.891007 -0.453991 0
    outer loop
      vertex 0.435898 45.6 1.9
      vertex 0.435898 45.6 7.00001
      vertex 0.245818 45.2269 7.00001
    endloop
  endfacet
  facet normal 0.891007 -0.453991 0
    outer loop
      vertex 0.245818 45.2269 1.9
      vertex 0.435898 45.6 1.9
      vertex 0.245818 45.2269 7.00001
    endloop
  endfacet
  facet normal 0.933581 -0.358367 0
    outer loop
      vertex 0.245818 45.2269 1.9
      vertex 0.245818 45.2269 7.00001
      vertex 0.095774 44.8361 7.00001
    endloop
  endfacet
  facet normal 0.933581 -0.358367 0
    outer loop
      vertex 0.095774 44.8361 1.9
      vertex 0.245818 45.2269 1.9
      vertex 0.095774 44.8361 7.00001
    endloop
  endfacet
  facet normal 0.965926 -0.258818 0
    outer loop
      vertex 0.095774 44.8361 1.9
      vertex 0.095774 44.8361 7.00001
      vertex -0.01259 44.4316 7.00001
    endloop
  endfacet
  facet normal 0.965926 -0.258818 0
    outer loop
      vertex -0.01259 44.4316 1.9
      vertex 0.095774 44.8361 1.9
      vertex -0.01259 44.4316 7.00001
    endloop
  endfacet
  facet normal 0.987688 -0.156436 0
    outer loop
      vertex -0.01259 44.4316 1.9
      vertex -0.01259 44.4316 7.00001
      vertex -0.078088 44.0181 7.00001
    endloop
  endfacet
  facet normal 0.987688 -0.156436 0
    outer loop
      vertex -0.078088 44.0181 1.9
      vertex -0.01259 44.4316 1.9
      vertex -0.078088 44.0181 7.00001
    endloop
  endfacet
  facet normal 0.99863 -0.0523349 0
    outer loop
      vertex -0.078088 44.0181 1.9
      vertex -0.078088 44.0181 7.00001
      vertex -0.1 43.6 7.00001
    endloop
  endfacet
  facet normal 0.99863 -0.0523349 0
    outer loop
      vertex -0.1 43.6 1.9
      vertex -0.078088 44.0181 1.9
      vertex -0.1 43.6 7.00001
    endloop
  endfacet
  facet normal 0 0 1
    outer loop
      vertex -0.078088 3.48189 1.9
      vertex -0.01259 3.06835 1.9
      vertex 0.095774 2.66393 1.9
    endloop
  endfacet
  facet normal 0 0 1
    outer loop
      vertex 0.435898 1.9 1.9
      vertex -0.078088 3.48189 1.9
      vertex 0.245818 2.27305 1.9
    endloop
  endfacet
  facet normal 0 0 1
    outer loop
      vertex 0.245818 2.27305 1.9
      vertex -0.078088 3.48189 1.9
      vertex 0.095774 2.66393 1.9
    endloop
  endfacet
  facet normal 0 0 1
    outer loop
      vertex 0.663932 1.54886 1.9
      vertex -0.078088 3.48189 1.9
      vertex 0.435898 1.9 1.9
    endloop
  endfacet
  facet normal 0 0 1
    outer loop
      vertex 0.927421 1.22348 1.9
      vertex -0.078088 3.48189 1.9
      vertex 0.663932 1.54886 1.9
    endloop
  endfacet
  facet normal 0 0 1
    outer loop
      vertex 1.22348 0.927421 1.9
      vertex -0.078088 3.48189 1.9
      vertex 0.927421 1.22348 1.9
    endloop
  endfacet
  facet normal 0 0 1
    outer loop
      vertex 1.54886 0.663932 1.9
      vertex -0.078088 3.48189 1.9
      vertex 1.22348 0.927421 1.9
    endloop
  endfacet
  facet normal 0 0 1
    outer loop
      vertex 1.9 0.435898 1.9
      vertex -0.078088 3.48189 1.9
      vertex 1.54886 0.663932 1.9
    endloop
  endfacet
  facet normal 0 0 1
    outer loop
      vertex 2.27305 0.245818 1.9
      vertex -0.078088 3.48189 1.9
      vertex 1.9 0.435898 1.9
    endloop
  endfacet
  facet normal 0 0 1
    outer loop
      vertex 2.66393 0.095774 1.9
      vertex -0.078088 3.48189 1.9
      vertex 2.27305 0.245818 1.9
    endloop
  endfacet
  facet normal 0 0 1
    outer loop
      vertex 3.06835 -0.01259 1.9
      vertex -0.078088 3.48189 1.9
      vertex 2.66393 0.095774 1.9
    endloop
  endfacet
  facet normal 0 0 1
    outer loop
      vertex 3.48189 -0.078088 1.9
      vertex -0.078088 3.48189 1.9
      vertex 3.06835 -0.01259 1.9
    endloop
  endfacet
  facet normal 0 0 1
    outer loop
      vertex 3.9 -0.1 1.9
      vertex -0.078088 3.48189 1.9
      vertex 3.48189 -0.078088 1.9
    endloop
  endfacet
  facet normal 0 0 1
    outer loop
      vertex 35.1 -0.1 1.9
      vertex -0.078088 3.48189 1.9
      vertex 3.9 -0.1 1.9
    endloop
  endfacet
  facet normal 0 0 1
    outer loop
      vertex 35.5181 -0.078088 1.9
      vertex -0.078088 3.48189 1.9
      vertex 35.1 -0.1 1.9
    endloop
  endfacet
  facet normal 0 0 1
    outer loop
      vertex 35.9316 -0.01259 1.9
      vertex -0.078088 3.48189 1.9
      vertex 35.5181 -0.078088 1.9
    endloop
  endfacet
  facet normal 0 0 1
    outer loop
      vertex 36.3361 0.095774 1.9
      vertex -0.078088 3.48189 1.9
      vertex 35.9316 -0.01259 1.9
    endloop
  endfacet
  facet normal 0 0 1
    outer loop
      vertex 36.7269 0.245818 1.9
      vertex -0.078088 3.48189 1.9
      vertex 36.3361 0.095774 1.9
    endloop
  endfacet
  facet normal 0 0 1
    outer loop
      vertex 37.1 0.435898 1.9
      vertex -0.078088 3.48189 1.9
      vertex 36.7269 0.245818 1.9
    endloop
  endfacet
  facet normal 0 0 1
    outer loop
      vertex 37.4511 0.663932 1.9
      vertex -0.078088 3.48189 1.9
      vertex 37.1 0.435898 1.9
    endloop
  endfacet
  facet normal 0 0 1
    outer loop
      vertex 37.7765 0.927421 1.9
      vertex -0.078088 3.48189 1.9
      vertex 37.4511 0.663932 1.9
    endloop
  endfacet
  facet normal 0 0 1
    outer loop
      vertex 38.0726 1.22348 1.9
      vertex -0.078088 3.48189 1.9
      vertex 37.7765 0.927421 1.9
    endloop
  endfacet
  facet normal 0 0 1
    outer loop
      vertex 38.3361 1.54886 1.9
      vertex -0.078088 3.48189 1.9
      vertex 38.0726 1.22348 1.9
    endloop
  endfacet
  facet normal 0 0 1
    outer loop
      vertex 38.5641 1.9 1.9
      vertex -0.078088 3.48189 1.9
      vertex 38.3361 1.54886 1.9
    endloop
  endfacet
  facet normal 0 0 1
    outer loop
      vertex 38.7542 2.27305 1.9
      vertex -0.078088 3.48189 1.9
      vertex 38.5641 1.9 1.9
    endloop
  endfacet
  facet normal 0 0 1
    outer loop
      vertex 38.9042 2.66393 1.9
      vertex -0.078088 3.48189 1.9
      vertex 38.7542 2.27305 1.9
    endloop
  endfacet
  facet normal 0 0 1
    outer loop
      vertex 39.0126 3.06835 1.9
      vertex -0.078088 3.48189 1.9
      vertex 38.9042 2.66393 1.9
    endloop
  endfacet
  facet normal 0 0 1
    outer loop
      vertex 39.0781 3.48189 1.9
      vertex -0.078088 3.48189 1.9
      vertex 39.0126 3.06835 1.9
    endloop
  endfacet
  facet normal 0 0 1
    outer loop
      vertex 39.1 3.9 1.9
      vertex -0.078088 3.48189 1.9
      vertex 39.0781 3.48189 1.9
    endloop
  endfacet
  facet normal 0 0 1
    outer loop
      vertex 39.1 43.6 1.9
      vertex -0.078088 3.48189 1.9
      vertex 39.1 3.9 1.9
    endloop
  endfacet
  facet normal 0 0 1
    outer loop
      vertex 39.0781 44.0181 1.9
      vertex -0.078088 3.48189 1.9
      vertex 39.1 43.6 1.9
    endloop
  endfacet
  facet normal 0 0 1
    outer loop
      vertex 39.0126 44.4316 1.9
      vertex -0.078088 3.48189 1.9
      vertex 39.0781 44.0181 1.9
    endloop
  endfacet
  facet normal 0 0 1
    outer loop
      vertex 38.9042 44.8361 1.9
      vertex -0.078088 3.48189 1.9
      vertex 39.0126 44.4316 1.9
    endloop
  endfacet
  facet normal 0 0 1
    outer loop
      vertex 38.7542 45.2269 1.9
      vertex -0.078088 3.48189 1.9
      vertex 38.9042 44.8361 1.9
    endloop
  endfacet
  facet normal 0 0 1
    outer loop
      vertex 38.5641 45.6 1.9
      vertex -0.078088 3.48189 1.9
      vertex 38.7542 45.2269 1.9
    endloop
  endfacet
  facet normal 0 0 1
    outer loop
      vertex 38.3361 45.9511 1.9
      vertex -0.078088 3.48189 1.9
      vertex 38.5641 45.6 1.9
    endloop
  endfacet
  facet normal 0 0 1
    outer loop
      vertex 38.0726 46.2765 1.9
      vertex -0.078088 3.48189 1.9
      vertex 38.3361 45.9511 1.9
    endloop
  endfacet
  facet normal 0 0 1
    outer loop
      vertex 37.7765 46.5726 1.9
      vertex -0.078088 3.48189 1.9
      vertex 38.0726 46.2765 1.9
    endloop
  endfacet
  facet normal 0 0 1
    outer loop
      vertex 37.4511 46.8361 1.9
      vertex -0.078088 3.48189 1.9
      vertex 37.7765 46.5726 1.9
    endloop
  endfacet
  facet normal 0 0 1
    outer loop
      vertex 37.1 47.0641 1.9
      vertex -0.078088 3.48189 1.9
      vertex 37.4511 46.8361 1.9
    endloop
  endfacet
  facet normal 0 0 1
    outer loop
      vertex 36.7269 47.2542 1.9
      vertex -0.078088 3.48189 1.9
      vertex 37.1 47.0641 1.9
    endloop
  endfacet
  facet normal 0 0 1
    outer loop
      vertex 36.3361 47.4042 1.9
      vertex -0.078088 3.48189 1.9
      vertex 36.7269 47.2542 1.9
    endloop
  endfacet
  facet normal 0 0 1
    outer loop
      vertex 35.9316 47.5126 1.9
      vertex -0.078088 3.48189 1.9
      vertex 36.3361 47.4042 1.9
    endloop
  endfacet
  facet normal 0 0 1
    outer loop
      vertex 35.5181 47.5781 1.9
      vertex -0.078088 3.48189 1.9
      vertex 35.9316 47.5126 1.9
    endloop
  endfacet
  facet normal 0 0 1
    outer loop
      vertex 35.1 47.6 1.9
      vertex -0.078088 3.48189 1.9
      vertex 35.5181 47.5781 1.9
    endloop
  endfacet
  facet normal 0 0 1
    outer loop
      vertex 3.9 47.6 1.9
      vertex -0.078088 3.48189 1.9
      vertex 35.1 47.6 1.9
    endloop
  endfacet
  facet normal 0 0 1
    outer loop
      vertex 3.48189 47.5781 1.9
      vertex -0.078088 3.48189 1.9
      vertex 3.9 47.6 1.9
    endloop
  endfacet
  facet normal 0 0 1
    outer loop
      vertex 3.06835 47.5126 1.9
      vertex -0.078088 3.48189 1.9
      vertex 3.48189 47.5781 1.9
    endloop
  endfacet
  facet normal 0 0 1
    outer loop
      vertex 2.66393 47.4042 1.9
      vertex -0.078088 3.48189 1.9
      vertex 3.06835 47.5126 1.9
    endloop
  endfacet
  facet normal 0 0 1
    outer loop
      vertex 2.27305 47.2542 1.9
      vertex -0.078088 3.48189 1.9
      vertex 2.66393 47.4042 1.9
    endloop
  endfacet
  facet normal 0 0 1
    outer loop
      vertex 1.9 47.0641 1.9
      vertex -0.078088 3.48189 1.9
      vertex 2.27305 47.2542 1.9
    endloop
  endfacet
  facet normal 0 0 1
    outer loop
      vertex 1.54886 46.8361 1.9
      vertex -0.078088 3.48189 1.9
      vertex 1.9 47.0641 1.9
    endloop
  endfacet
  facet normal 0 0 1
    outer loop
      vertex 1.22348 46.5726 1.9
      vertex -0.078088 3.48189 1.9
      vertex 1.54886 46.8361 1.9
    endloop
  endfacet
  facet normal 0 0 1
    outer loop
      vertex 0.927421 46.2765 1.9
      vertex -0.078088 3.48189 1.9
      vertex 1.22348 46.5726 1.9
    endloop
  endfacet
  facet normal 0 0 1
    outer loop
      vertex 0.663932 45.9511 1.9
      vertex -0.078088 3.48189 1.9
      vertex 0.927421 46.2765 1.9
    endloop
  endfacet
  facet normal 0 0 1
    outer loop
      vertex 0.435898 45.6 1.9
      vertex -0.078088 3.48189 1.9
      vertex 0.663932 45.9511 1.9
    endloop
  endfacet
  facet normal 0 0 1
    outer loop
      vertex 0.245818 45.2269 1.9
      vertex -0.078088 3.48189 1.9
      vertex 0.435898 45.6 1.9
    endloop
  endfacet
  facet normal 0 0 1
    outer loop
      vertex 0.095774 44.8361 1.9
      vertex -0.078088 3.48189 1.9
      vertex 0.245818 45.2269 1.9
    endloop
  endfacet
  facet normal 0 0 1
    outer loop
      vertex -0.01259 44.4316 1.9
      vertex -0.078088 3.48189 1.9
      vertex 0.095774 44.8361 1.9
    endloop
  endfacet
  facet normal 0 0 1
    outer loop
      vertex -0.078088 44.0181 1.9
      vertex -0.078088 3.48189 1.9
      vertex -0.01259 44.4316 1.9
    endloop
  endfacet
  facet normal 0 0 1
    outer loop
      vertex -0.1 43.6 1.9
      vertex -0.078088 3.48189 1.9
      vertex -0.078088 44.0181 1.9
    endloop
  endfacet
  facet normal 0 0 1
    outer loop
      vertex -0.1 3.9 1.9
      vertex -0.078088 3.48189 1.9
      vertex -0.1 43.6 1.9
    endloop
  endfacet
endsolid OpenSCAD_Model
